<svg id="svg" version="1.1" width="400" height="75.28735632183908" viewBox="0 0 400 75.28735632183908" xmlns="http://www.w3.org/2000/svg" xmlns:xlink="http://www.w3.org/1999/xlink" ><g id="svgg"><path id="path0" d="M69.833 2.132 C 69.833 2.220,69.940 2.381,70.070 2.489 C 70.260 2.647,70.298 2.628,70.264 2.393 C 70.219 2.088,69.833 1.854,69.833 2.132 M166.523 4.652 C 166.968 5.013,167.054 5.003,166.903 4.607 C 166.845 4.457,166.647 4.333,166.464 4.333 C 166.150 4.333,166.154 4.353,166.523 4.652 M250.927 4.770 C 250.866 5.010,250.858 5.247,250.909 5.297 C 250.959 5.348,251.000 5.268,251.000 5.121 C 251.000 4.973,251.167 4.735,251.370 4.593 C 251.739 4.334,251.739 4.333,251.388 4.333 C 251.147 4.333,251.002 4.471,250.927 4.770 M309.408 4.487 C 309.471 4.589,309.587 4.632,309.666 4.584 C 309.744 4.536,309.847 4.628,309.894 4.790 C 309.963 5.024,309.974 5.016,309.947 4.752 C 309.928 4.570,309.774 4.394,309.603 4.361 C 309.409 4.323,309.336 4.370,309.408 4.487 M384.944 4.444 C 384.695 4.694,384.822 5.050,385.083 4.833 C 385.221 4.719,385.333 4.560,385.333 4.480 C 385.333 4.307,385.103 4.286,384.944 4.444 M250.915 37.833 C 250.915 55.663,250.934 62.956,250.958 54.042 C 250.982 45.127,250.982 30.540,250.958 21.625 C 250.934 12.710,250.915 20.004,250.915 37.833 M44.708 6.110 C 44.594 6.157,44.500 6.315,44.500 6.462 C 44.500 6.706,44.519 6.706,44.708 6.468 C 44.823 6.323,45.029 6.165,45.167 6.116 C 45.389 6.036,45.389 6.026,45.167 6.026 C 45.029 6.026,44.823 6.064,44.708 6.110 M266.544 6.272 C 266.705 6.320,266.795 6.428,266.742 6.513 C 266.690 6.597,266.733 6.667,266.837 6.667 C 267.158 6.667,266.911 6.252,266.570 6.218 C 266.300 6.191,266.296 6.199,266.544 6.272 M215.377 6.948 C 215.532 7.103,215.706 7.183,215.763 7.126 C 215.927 6.962,215.675 6.667,215.371 6.667 C 215.117 6.667,215.117 6.689,215.377 6.948 M41.660 8.179 C 41.492 8.494,41.505 8.509,41.811 8.345 C 42.261 8.104,42.414 7.833,42.099 7.833 C 41.959 7.833,41.762 7.989,41.660 8.179 M268.057 8.281 C 268.362 8.873,268.668 9.135,268.664 8.802 C 268.662 8.682,268.463 8.396,268.222 8.167 L 267.782 7.750 268.057 8.281 M38.358 10.934 C 37.960 11.349,37.668 11.723,37.710 11.766 C 37.801 11.857,39.167 10.477,39.167 10.293 C 39.167 10.100,39.136 10.125,38.358 10.934 M86.766 11.039 C 87.163 11.504,87.563 11.826,87.645 11.744 C 87.725 11.663,86.731 10.667,86.570 10.667 C 86.503 10.667,86.591 10.834,86.766 11.039 M37.167 12.015 C 37.167 12.115,36.998 12.333,36.792 12.501 C 36.585 12.668,36.462 12.850,36.516 12.905 C 36.630 13.019,37.500 12.198,37.500 11.977 C 37.500 11.898,37.425 11.833,37.333 11.833 C 37.242 11.833,37.167 11.915,37.167 12.015 M88.167 12.429 C 88.167 12.481,88.283 12.640,88.425 12.782 C 88.746 13.103,88.958 12.934,88.670 12.587 C 88.462 12.337,88.167 12.243,88.167 12.429 M271.751 13.334 C 272.083 13.701,272.264 13.662,272.109 13.257 C 272.055 13.116,271.884 13.000,271.729 13.000 C 271.473 13.000,271.475 13.029,271.751 13.334 M195.833 13.833 C 195.735 14.017,195.715 14.167,195.787 14.167 C 195.860 14.167,196.013 14.017,196.128 13.833 C 196.243 13.649,196.264 13.500,196.174 13.500 C 196.085 13.500,195.931 13.650,195.833 13.833 M34.255 15.485 C 34.199 15.659,34.044 15.845,33.910 15.896 C 33.776 15.947,33.667 16.120,33.667 16.279 C 33.667 16.516,33.719 16.498,33.958 16.181 C 34.119 15.968,34.381 15.653,34.542 15.480 C 34.772 15.233,34.783 15.167,34.595 15.167 C 34.463 15.167,34.310 15.310,34.255 15.485 M194.708 16.444 C 194.594 16.490,194.506 16.690,194.513 16.889 C 194.522 17.129,194.556 17.166,194.616 17.000 C 194.665 16.862,194.823 16.656,194.968 16.542 C 195.230 16.334,195.102 16.285,194.708 16.444 M33.013 17.200 C 33.006 17.356,32.878 17.552,32.728 17.635 C 32.579 17.719,32.491 17.890,32.533 18.015 C 32.585 18.171,32.702 18.101,32.903 17.794 C 33.065 17.546,33.159 17.248,33.112 17.130 C 33.057 16.993,33.022 17.018,33.013 17.200 M194.208 17.620 C 194.094 17.661,194.000 17.817,194.000 17.966 C 194.000 18.214,194.025 18.213,194.282 17.956 C 194.583 17.655,194.549 17.498,194.208 17.620 M275.710 18.272 C 275.872 18.320,275.964 18.423,275.916 18.501 C 275.868 18.579,275.911 18.695,276.013 18.758 C 276.130 18.830,276.177 18.758,276.139 18.563 C 276.106 18.393,275.930 18.239,275.748 18.220 C 275.484 18.193,275.476 18.203,275.710 18.272 M92.833 18.829 C 92.833 18.934,92.903 18.977,92.987 18.924 C 93.072 18.872,93.177 18.944,93.220 19.085 C 93.282 19.282,93.294 19.276,93.275 19.059 C 93.247 18.745,92.833 18.530,92.833 18.829 M221.500 21.584 C 221.500 21.637,221.650 21.842,221.833 22.038 C 222.110 22.336,222.167 22.350,222.167 22.121 C 222.167 21.969,222.017 21.765,221.833 21.667 C 221.650 21.569,221.500 21.532,221.500 21.584 M279.205 23.000 C 279.320 23.183,279.473 23.333,279.546 23.333 C 279.619 23.333,279.598 23.183,279.500 23.000 C 279.402 22.817,279.249 22.667,279.159 22.667 C 279.070 22.667,279.090 22.815,279.205 23.000 M95.891 25.305 C 96.043 25.472,96.167 25.747,96.167 25.916 C 96.167 26.084,96.211 26.178,96.266 26.123 C 96.462 25.927,96.141 25.000,95.878 25.000 C 95.643 25.000,95.645 25.033,95.891 25.305 M280.918 25.334 C 281.249 25.701,281.431 25.662,281.276 25.257 C 281.222 25.116,281.051 25.000,280.896 25.000 C 280.640 25.000,280.641 25.029,280.918 25.334 M223.333 25.730 C 223.333 25.764,223.446 25.886,223.583 26.000 C 223.788 26.170,223.833 26.159,223.833 25.937 C 223.833 25.788,223.721 25.667,223.583 25.667 C 223.446 25.667,223.333 25.695,223.333 25.730 M205.095 27.987 C 204.818 28.293,204.819 28.306,205.111 28.263 C 205.279 28.239,205.441 28.094,205.471 27.943 C 205.541 27.584,205.450 27.594,205.095 27.987 M225.000 29.730 C 225.000 29.764,225.112 29.886,225.250 30.000 C 225.455 30.170,225.500 30.159,225.500 29.937 C 225.500 29.788,225.387 29.667,225.250 29.667 C 225.112 29.667,225.000 29.695,225.000 29.730 M209.542 30.375 C 209.580 30.490,209.752 30.611,209.925 30.644 C 210.197 30.697,210.209 30.669,210.016 30.436 C 209.752 30.117,209.443 30.078,209.542 30.375 M203.944 30.882 C 203.776 31.054,203.669 31.225,203.707 31.262 C 203.826 31.381,204.382 30.894,204.315 30.729 C 204.279 30.641,204.112 30.710,203.944 30.882 M267.582 32.500 C 267.736 33.010,267.770 33.050,267.977 32.976 C 268.067 32.943,267.987 32.729,267.799 32.500 L 267.456 32.083 267.582 32.500 M226.844 33.930 C 227.081 34.215,227.387 34.244,227.297 33.973 C 227.261 33.866,227.101 33.760,226.940 33.736 C 226.705 33.702,226.687 33.740,226.844 33.930 M269.333 34.901 C 269.333 35.041,269.489 35.238,269.679 35.340 C 269.994 35.508,270.009 35.495,269.845 35.189 C 269.604 34.739,269.333 34.586,269.333 34.901 M289.890 36.948 C 290.196 37.540,290.502 37.802,290.497 37.468 C 290.496 37.348,290.297 37.063,290.055 36.833 L 289.616 36.417 289.890 36.948 M271.000 37.064 C 271.000 37.201,271.075 37.360,271.167 37.417 C 271.258 37.473,271.333 37.407,271.333 37.270 C 271.333 37.132,271.258 36.973,271.167 36.917 C 271.075 36.860,271.000 36.926,271.000 37.064 M272.755 39.333 C 272.898 39.831,272.967 39.922,273.100 39.789 C 273.156 39.733,273.074 39.515,272.918 39.302 L 272.636 38.917 272.755 39.333 M27.333 39.972 C 27.333 40.194,27.438 40.333,27.604 40.333 C 27.835 40.333,27.842 40.291,27.651 40.042 C 27.528 39.881,27.406 39.719,27.380 39.681 C 27.355 39.642,27.333 39.774,27.333 39.972 M213.500 39.879 C 213.500 40.031,213.650 40.235,213.833 40.333 C 214.017 40.431,214.167 40.468,214.167 40.416 C 214.167 40.363,214.017 40.158,213.833 39.962 C 213.556 39.664,213.500 39.650,213.500 39.879 M200.012 40.569 C 199.888 40.719,199.835 40.891,199.896 40.951 C 200.051 41.107,200.384 40.736,200.304 40.496 C 200.258 40.358,200.168 40.381,200.012 40.569 M184.281 40.849 C 184.194 41.183,184.203 41.186,184.512 40.906 C 184.894 40.560,184.908 40.500,184.603 40.500 C 184.476 40.500,184.331 40.657,184.281 40.849 M182.611 44.611 C 182.362 44.861,182.489 45.217,182.750 45.000 C 182.887 44.886,183.000 44.727,183.000 44.646 C 183.000 44.474,182.769 44.453,182.611 44.611 M28.500 46.306 C 28.500 46.528,28.604 46.667,28.770 46.667 C 29.002 46.667,29.009 46.625,28.818 46.375 C 28.695 46.215,28.573 46.052,28.547 46.014 C 28.521 45.976,28.500 46.107,28.500 46.306 M278.508 46.833 C 278.507 46.971,278.704 47.271,278.947 47.500 C 279.299 47.833,279.351 47.850,279.206 47.583 C 278.849 46.929,278.511 46.565,278.508 46.833 M150.444 47.444 C 150.195 47.694,150.322 48.050,150.583 47.833 C 150.721 47.719,150.833 47.560,150.833 47.480 C 150.833 47.307,150.603 47.286,150.444 47.444 M181.391 47.591 C 181.246 47.967,181.376 47.987,181.708 47.639 C 181.955 47.380,181.961 47.333,181.745 47.333 C 181.604 47.333,181.445 47.449,181.391 47.591 M180.891 48.757 C 180.837 48.899,180.839 49.061,180.896 49.118 C 180.953 49.175,181.000 49.093,181.000 48.935 C 181.000 48.776,181.075 48.693,181.167 48.750 C 181.258 48.807,181.333 48.774,181.333 48.677 C 181.333 48.406,181.002 48.467,180.891 48.757 M233.205 48.833 C 233.416 49.170,233.667 49.279,233.667 49.033 C 233.667 48.860,233.306 48.500,233.132 48.500 C 233.058 48.500,233.091 48.650,233.205 48.833 M280.167 49.133 C 280.167 49.307,280.528 49.667,280.701 49.667 C 280.776 49.667,280.742 49.517,280.628 49.333 C 280.418 48.997,280.167 48.888,280.167 49.133 M149.781 49.515 C 149.694 49.850,149.703 49.852,150.012 49.573 C 150.394 49.226,150.408 49.167,150.103 49.167 C 149.976 49.167,149.831 49.324,149.781 49.515 M109.500 50.820 C 109.500 51.016,109.616 51.222,109.757 51.276 C 110.150 51.427,110.170 51.290,109.819 50.857 C 109.504 50.468,109.500 50.468,109.500 50.820 M94.750 51.000 C 94.496 51.280,94.489 51.333,94.705 51.333 C 94.846 51.333,95.000 51.183,95.048 51.000 C 95.096 50.817,95.117 50.667,95.094 50.667 C 95.071 50.667,94.916 50.817,94.750 51.000 M82.542 51.042 C 82.580 51.156,82.752 51.277,82.925 51.311 C 83.197 51.364,83.209 51.335,83.016 51.103 C 82.752 50.784,82.443 50.744,82.542 51.042 M234.365 51.436 C 234.520 51.483,234.682 51.685,234.725 51.885 C 234.792 52.191,234.800 52.183,234.777 51.835 C 234.759 51.553,234.643 51.409,234.417 51.386 C 234.177 51.362,234.162 51.376,234.365 51.436 M282.000 51.583 C 282.000 51.721,282.122 51.833,282.270 51.833 C 282.492 51.833,282.503 51.788,282.333 51.583 C 282.219 51.446,282.098 51.333,282.063 51.333 C 282.028 51.333,282.000 51.446,282.000 51.583 M84.285 52.167 C 84.333 52.350,84.488 52.500,84.629 52.500 C 84.844 52.500,84.837 52.447,84.583 52.167 C 84.417 51.983,84.263 51.833,84.240 51.833 C 84.217 51.833,84.237 51.983,84.285 52.167 M179.162 52.843 C 179.061 53.031,179.011 53.275,179.052 53.384 C 179.092 53.494,179.180 53.378,179.247 53.126 C 179.314 52.875,179.436 52.710,179.518 52.761 C 179.600 52.812,179.667 52.774,179.667 52.677 C 179.667 52.378,179.355 52.481,179.162 52.843 M234.833 52.632 C 234.833 52.720,234.954 52.893,235.103 53.016 C 235.335 53.209,235.364 53.197,235.311 52.925 C 235.248 52.601,234.833 52.347,234.833 52.632 M93.584 53.332 C 93.418 53.516,93.359 53.667,93.454 53.667 C 93.663 53.667,94.079 53.190,93.967 53.078 C 93.923 53.034,93.751 53.148,93.584 53.332 M284.172 54.167 C 284.172 54.454,284.450 54.946,284.546 54.829 C 284.582 54.785,284.512 54.563,284.391 54.333 C 284.270 54.104,284.172 54.029,284.172 54.167 M93.012 54.402 C 92.888 54.552,92.835 54.724,92.896 54.785 C 93.051 54.940,93.384 54.570,93.304 54.330 C 93.258 54.192,93.168 54.214,93.012 54.402 M88.833 55.004 C 88.833 55.099,88.949 55.222,89.091 55.276 C 89.481 55.426,89.527 55.264,89.159 55.034 C 88.953 54.905,88.833 54.894,88.833 55.004 M91.919 56.162 C 91.857 56.264,91.652 56.298,91.465 56.239 C 91.238 56.167,91.163 56.192,91.239 56.315 C 91.384 56.551,91.946 56.555,92.090 56.322 C 92.151 56.224,92.163 56.107,92.117 56.061 C 92.071 56.015,91.982 56.061,91.919 56.162 M141.582 56.669 C 141.524 56.763,141.407 56.796,141.322 56.743 C 141.236 56.690,141.167 56.726,141.167 56.823 C 141.167 57.063,141.353 57.037,141.740 56.745 C 141.918 56.610,141.979 56.500,141.875 56.500 C 141.771 56.500,141.639 56.576,141.582 56.669 M177.333 56.937 C 177.333 57.159,177.379 57.170,177.583 57.000 C 177.721 56.886,177.833 56.764,177.833 56.730 C 177.833 56.695,177.721 56.667,177.583 56.667 C 177.446 56.667,177.333 56.788,177.333 56.937 M91.210 57.272 C 91.372 57.320,91.461 57.428,91.409 57.513 C 91.357 57.597,91.399 57.667,91.504 57.667 C 91.825 57.667,91.577 57.252,91.236 57.218 C 90.967 57.191,90.963 57.199,91.210 57.272 M112.333 58.625 C 112.333 58.729,112.410 58.861,112.503 58.918 C 112.596 58.976,112.629 59.093,112.576 59.178 C 112.523 59.264,112.560 59.333,112.657 59.333 C 112.896 59.333,112.871 59.147,112.578 58.760 C 112.443 58.582,112.333 58.521,112.333 58.625 M287.694 58.937 C 287.727 59.107,287.903 59.261,288.085 59.280 C 288.349 59.307,288.357 59.297,288.123 59.228 C 287.961 59.180,287.869 59.077,287.917 58.999 C 287.966 58.921,287.922 58.805,287.820 58.742 C 287.704 58.670,287.657 58.742,287.694 58.937 M192.576 58.987 C 192.628 59.072,192.556 59.177,192.415 59.220 C 192.218 59.282,192.224 59.294,192.441 59.275 C 192.755 59.247,192.970 58.833,192.671 58.833 C 192.566 58.833,192.523 58.903,192.576 58.987 M74.097 59.875 C 74.271 60.081,74.423 60.272,74.436 60.299 C 74.449 60.326,74.505 60.228,74.561 60.082 C 74.620 59.928,74.594 59.859,74.498 59.918 C 74.407 59.974,74.333 59.903,74.333 59.760 C 74.333 59.617,74.209 59.500,74.058 59.500 C 73.813 59.500,73.817 59.542,74.097 59.875 M36.500 60.571 C 36.500 60.632,36.837 61.025,37.250 61.443 C 38.059 62.263,38.290 62.241,37.529 61.417 C 36.960 60.800,36.500 60.422,36.500 60.571 M96.250 60.667 C 96.709 60.864,96.872 60.864,96.750 60.667 C 96.693 60.575,96.483 60.505,96.282 60.512 C 95.930 60.523,95.929 60.529,96.250 60.667 M289.333 60.950 C 289.333 61.173,289.791 61.764,289.889 61.666 C 289.934 61.621,289.828 61.406,289.652 61.190 C 289.477 60.973,289.333 60.865,289.333 60.950 M222.167 61.228 C 222.167 61.502,222.466 61.756,222.614 61.608 C 222.665 61.557,222.585 61.394,222.437 61.246 C 222.203 61.013,222.167 61.011,222.167 61.228 M290.000 61.999 C 290.000 62.097,290.112 62.220,290.250 62.273 C 290.387 62.326,290.506 62.492,290.513 62.643 C 290.522 62.834,290.553 62.850,290.615 62.696 C 290.663 62.574,290.545 62.328,290.351 62.148 C 290.158 61.968,290.000 61.901,290.000 61.999 M114.773 62.583 C 114.826 62.721,114.973 62.833,115.101 62.833 C 115.229 62.833,115.333 62.946,115.333 63.083 C 115.333 63.221,115.460 63.333,115.615 63.333 C 115.834 63.333,115.791 63.224,115.417 62.833 C 114.898 62.292,114.620 62.184,114.773 62.583 M291.167 63.568 C 291.167 63.707,291.322 63.905,291.513 64.007 C 291.827 64.175,291.842 64.161,291.678 63.855 C 291.438 63.405,291.167 63.253,291.167 63.568 M41.167 64.729 C 41.167 64.884,41.282 65.055,41.424 65.109 C 41.828 65.264,41.867 65.083,41.501 64.751 C 41.196 64.475,41.167 64.473,41.167 64.729 M190.178 64.736 C 190.054 64.886,190.002 65.057,190.062 65.118 C 190.218 65.274,190.551 64.903,190.471 64.663 C 190.425 64.525,190.335 64.548,190.178 64.736 M240.201 64.992 C 240.431 65.361,240.592 65.315,240.442 64.924 C 240.388 64.782,240.266 64.667,240.170 64.667 C 240.061 64.667,240.072 64.786,240.201 64.992 M77.772 65.585 C 77.713 65.739,77.740 65.808,77.835 65.749 C 77.926 65.693,78.000 65.751,78.000 65.879 C 78.000 66.007,78.113 66.111,78.251 66.111 C 78.461 66.111,78.455 66.055,78.211 65.764 C 78.051 65.573,77.910 65.395,77.897 65.368 C 77.885 65.341,77.829 65.439,77.772 65.585 M189.846 65.779 C 189.839 65.979,189.702 66.177,189.542 66.218 C 189.268 66.290,189.269 66.296,189.547 66.314 C 189.870 66.335,190.082 65.971,189.946 65.630 C 189.898 65.513,189.854 65.580,189.846 65.779 M156.667 66.035 L 156.250 66.378 156.667 66.251 C 157.177 66.097,157.217 66.064,157.142 65.856 C 157.110 65.766,156.896 65.846,156.667 66.035 M96.416 66.587 C 96.246 66.860,95.993 67.177,95.855 67.292 C 95.633 67.475,95.636 67.500,95.885 67.500 C 96.040 67.500,96.167 67.428,96.167 67.340 C 96.167 67.252,96.325 67.032,96.518 66.852 C 96.711 66.672,96.837 66.427,96.797 66.308 C 96.752 66.172,96.608 66.278,96.416 66.587 M78.000 66.480 C 78.000 66.560,78.107 66.714,78.237 66.822 C 78.431 66.984,78.458 66.958,78.384 66.676 C 78.297 66.341,78.000 66.189,78.000 66.480 M44.667 67.056 C 44.667 67.187,44.832 67.338,45.034 67.391 C 45.532 67.521,45.538 67.470,45.067 67.117 C 44.748 66.879,44.667 66.866,44.667 67.056 M172.772 67.875 C 172.601 68.514,172.658 68.604,172.918 68.106 C 173.208 67.549,173.216 67.500,173.019 67.500 C 172.938 67.500,172.827 67.669,172.772 67.875 M78.138 68.072 C 77.912 68.374,77.904 68.444,78.097 68.444 C 78.227 68.444,78.296 68.408,78.251 68.363 C 78.206 68.318,78.255 68.178,78.359 68.053 C 78.462 67.928,78.518 67.797,78.482 67.762 C 78.446 67.728,78.291 67.867,78.138 68.072 M48.053 68.748 C 48.073 68.942,48.224 69.094,48.419 69.114 C 48.659 69.138,48.673 69.124,48.469 69.064 C 48.314 69.017,48.149 68.853,48.103 68.698 C 48.042 68.494,48.028 68.508,48.053 68.748 M188.458 68.861 C 188.212 69.120,188.206 69.167,188.422 69.167 C 188.562 69.167,188.722 69.051,188.776 68.909 C 188.920 68.533,188.791 68.513,188.458 68.861 M295.167 68.704 C 295.167 69.008,295.462 69.260,295.626 69.096 C 295.683 69.039,295.603 68.865,295.448 68.710 C 295.189 68.450,295.167 68.450,295.167 68.704 M80.167 69.698 C 80.167 69.991,80.622 70.433,80.771 70.285 C 80.824 70.232,80.709 70.020,80.517 69.813 C 80.248 69.524,80.167 69.498,80.167 69.698 M51.000 70.000 C 51.098 70.183,51.293 70.333,51.432 70.333 C 51.572 70.333,51.639 70.257,51.582 70.164 C 51.524 70.071,51.407 70.038,51.322 70.090 C 51.236 70.143,51.167 70.069,51.167 69.927 C 51.167 69.784,51.089 69.667,50.994 69.667 C 50.877 69.667,50.879 69.774,51.000 70.000 M69.597 70.978 C 69.525 71.095,69.305 71.261,69.108 71.349 C 68.814 71.479,68.840 71.490,69.250 71.407 C 69.844 71.287,69.889 71.251,69.798 70.977 C 69.741 70.808,69.702 70.808,69.597 70.978 M91.500 71.417 C 91.070 71.861,91.003 72.000,91.221 72.000 C 91.379 72.000,91.581 71.808,91.670 71.573 C 91.760 71.339,91.908 71.193,92.000 71.250 C 92.092 71.307,92.167 71.236,92.167 71.093 C 92.167 70.740,92.146 70.751,91.500 71.417 M131.333 71.171 C 131.333 71.316,131.980 71.575,132.084 71.472 C 132.116 71.440,131.960 71.327,131.738 71.222 C 131.515 71.117,131.333 71.094,131.333 71.171 M82.500 73.878 C 82.500 74.017,82.612 74.174,82.750 74.227 C 82.887 74.280,83.000 74.259,83.000 74.182 C 83.000 74.104,82.887 73.947,82.750 73.833 C 82.546 73.664,82.500 73.673,82.500 73.878 M87.151 74.603 C 86.957 74.835,86.970 74.864,87.241 74.811 C 87.414 74.777,87.587 74.656,87.625 74.542 C 87.724 74.244,87.415 74.284,87.151 74.603 M83.003 74.792 C 83.001 74.998,83.075 75.167,83.167 75.167 C 83.375 75.167,83.375 74.990,83.167 74.667 C 83.036 74.465,83.005 74.488,83.003 74.792 " stroke="none" fill="#000000" fill-rule="evenodd"></path><path id="path1" d="M59.161 1.741 C 58.984 1.916,58.437 1.991,57.167 2.013 C 55.239 2.047,55.000 2.093,55.000 2.434 C 55.000 2.606,54.752 2.667,54.055 2.667 C 53.464 2.667,53.010 2.757,52.843 2.908 C 52.697 3.040,52.254 3.168,51.860 3.191 C 51.370 3.220,51.092 3.328,50.982 3.533 C 50.876 3.731,50.630 3.833,50.258 3.833 C 49.567 3.833,49.137 3.985,49.261 4.184 C 49.312 4.266,49.129 4.333,48.855 4.333 C 48.581 4.333,48.254 4.437,48.127 4.563 C 48.001 4.689,47.658 4.845,47.366 4.910 C 47.072 4.974,46.833 5.133,46.833 5.263 C 46.833 5.403,46.667 5.500,46.427 5.500 C 46.203 5.500,45.969 5.583,45.906 5.684 C 45.844 5.785,45.539 5.973,45.230 6.103 C 44.920 6.232,44.667 6.412,44.667 6.502 C 44.667 6.593,44.479 6.667,44.250 6.667 C 44.021 6.667,43.833 6.746,43.833 6.842 C 43.833 6.938,43.608 7.096,43.333 7.192 C 43.058 7.288,42.833 7.471,42.833 7.600 C 42.833 7.728,42.751 7.833,42.651 7.833 C 42.551 7.833,42.280 7.982,42.048 8.164 C 41.817 8.346,41.567 8.458,41.492 8.412 C 41.418 8.366,41.312 8.471,41.256 8.646 C 41.201 8.821,41.001 9.005,40.811 9.054 C 40.622 9.104,40.516 9.224,40.576 9.322 C 40.637 9.420,40.586 9.500,40.464 9.500 C 40.341 9.500,40.112 9.650,39.955 9.833 C 39.798 10.017,39.557 10.167,39.418 10.167 C 39.280 10.167,39.167 10.225,39.167 10.296 C 39.167 10.407,38.688 10.916,37.667 11.891 C 37.529 12.022,37.300 12.269,37.157 12.440 C 37.015 12.610,36.696 12.899,36.449 13.081 C 36.191 13.271,36.000 13.573,36.000 13.790 C 36.000 14.056,35.902 14.167,35.667 14.167 C 35.483 14.167,35.333 14.271,35.333 14.399 C 35.333 14.527,35.221 14.674,35.083 14.727 C 34.946 14.780,34.833 14.900,34.833 14.995 C 34.833 15.089,34.702 15.308,34.542 15.480 C 34.013 16.049,33.667 16.564,33.667 16.784 C 33.667 16.903,33.554 17.000,33.417 17.000 C 33.279 17.000,33.167 17.102,33.167 17.228 C 33.167 17.353,33.017 17.646,32.833 17.879 C 32.650 18.112,32.500 18.422,32.500 18.568 C 32.500 18.714,32.406 18.815,32.292 18.792 C 32.171 18.768,32.060 18.959,32.027 19.245 C 31.996 19.516,31.827 19.839,31.652 19.962 C 31.477 20.085,31.333 20.369,31.333 20.593 C 31.333 20.844,31.237 21.000,31.083 21.000 C 30.909 21.000,30.833 21.176,30.833 21.583 C 30.833 21.971,30.755 22.167,30.601 22.167 C 30.350 22.167,30.167 22.516,30.167 22.993 C 30.167 23.158,30.058 23.383,29.926 23.493 C 29.793 23.603,29.662 24.006,29.634 24.388 C 29.601 24.835,29.509 25.068,29.375 25.042 C 29.260 25.019,29.163 25.056,29.158 25.125 C 29.102 25.956,28.926 26.772,28.784 26.862 C 28.686 26.923,28.575 27.448,28.537 28.028 C 28.499 28.609,28.381 29.159,28.275 29.251 C 27.996 29.494,27.948 29.752,27.869 31.413 C 27.826 32.317,27.706 33.042,27.566 33.242 C 27.232 33.720,27.230 39.445,27.564 39.922 C 27.706 40.125,27.834 40.928,27.894 42.001 C 28.016 44.175,28.009 44.134,28.278 44.238 C 28.420 44.292,28.500 44.610,28.500 45.124 C 28.500 45.565,28.603 46.074,28.730 46.255 C 28.856 46.435,28.997 46.904,29.042 47.297 C 29.087 47.689,29.246 48.145,29.395 48.310 C 29.545 48.475,29.667 48.885,29.667 49.221 C 29.667 49.558,29.734 49.833,29.817 49.833 C 29.991 49.833,30.348 50.763,30.222 50.889 C 30.176 50.935,30.295 51.057,30.486 51.159 C 30.735 51.293,30.833 51.508,30.833 51.923 C 30.833 52.313,30.911 52.500,31.073 52.500 C 31.221 52.500,31.332 52.706,31.364 53.042 C 31.398 53.389,31.506 53.583,31.667 53.583 C 31.821 53.583,31.938 53.775,31.973 54.083 C 32.004 54.358,32.135 54.643,32.264 54.717 C 32.394 54.790,32.500 54.959,32.500 55.092 C 32.500 55.225,32.612 55.333,32.750 55.333 C 32.889 55.333,33.000 55.482,33.000 55.668 C 33.000 55.853,33.150 56.132,33.333 56.289 C 33.517 56.446,33.667 56.632,33.667 56.704 C 33.667 56.775,33.817 56.983,34.000 57.167 C 34.183 57.350,34.333 57.650,34.333 57.833 C 34.333 58.019,34.444 58.167,34.583 58.167 C 34.721 58.167,34.833 58.238,34.833 58.325 C 34.833 58.554,35.588 59.333,35.811 59.333 C 35.915 59.333,36.000 59.448,36.000 59.589 C 36.000 59.729,36.112 59.887,36.250 59.940 C 36.387 59.992,36.500 60.136,36.500 60.258 C 36.500 60.381,36.631 60.579,36.792 60.699 C 36.952 60.819,37.308 61.179,37.583 61.500 C 37.858 61.821,38.133 62.083,38.193 62.083 C 38.414 62.083,39.477 63.069,39.397 63.199 C 39.351 63.273,39.468 63.333,39.657 63.333 C 39.846 63.333,40.000 63.418,40.000 63.523 C 40.000 63.778,40.749 64.458,41.119 64.538 C 41.283 64.574,41.398 64.692,41.375 64.802 C 41.352 64.911,41.390 64.992,41.458 64.982 C 41.772 64.937,42.333 65.228,42.333 65.436 C 42.333 65.563,42.488 65.667,42.677 65.667 C 42.865 65.667,42.976 65.738,42.922 65.825 C 42.841 65.956,43.491 66.452,43.625 66.361 C 43.789 66.251,44.000 66.376,44.000 66.583 C 44.000 66.721,44.143 66.833,44.318 66.833 C 44.639 66.833,46.000 67.638,46.000 67.827 C 46.000 67.883,46.167 67.942,46.372 67.957 C 46.576 67.972,46.828 68.101,46.932 68.243 C 47.035 68.384,47.356 68.500,47.643 68.500 C 47.978 68.500,48.167 68.583,48.167 68.731 C 48.167 68.983,48.661 69.161,49.375 69.164 C 49.670 69.166,49.833 69.256,49.833 69.417 C 49.833 69.597,50.019 69.667,50.500 69.667 C 50.993 69.667,51.167 69.734,51.167 69.927 C 51.167 70.069,51.236 70.143,51.322 70.090 C 51.407 70.038,51.524 70.071,51.582 70.164 C 51.639 70.257,52.022 70.333,52.432 70.333 C 52.941 70.333,53.208 70.413,53.273 70.583 C 53.346 70.772,53.651 70.833,54.528 70.833 C 55.259 70.833,55.648 70.895,55.583 71.000 C 55.400 71.297,56.207 71.449,58.156 71.487 C 59.418 71.511,60.217 71.604,60.522 71.762 C 61.158 72.090,64.215 72.095,64.542 71.767 C 64.710 71.599,65.376 71.519,66.953 71.476 C 68.707 71.428,69.193 71.362,69.443 71.135 C 69.659 70.940,70.096 70.842,70.869 70.817 C 71.622 70.793,72.012 70.709,72.070 70.557 C 72.123 70.421,72.419 70.333,72.827 70.333 C 73.317 70.333,73.553 70.244,73.705 70.000 C 73.866 69.743,74.094 69.667,74.707 69.667 C 75.301 69.667,75.500 69.604,75.500 69.417 C 75.500 69.242,75.676 69.167,76.083 69.167 C 76.556 69.167,76.667 69.103,76.667 68.833 C 76.667 68.567,76.785 68.496,77.250 68.479 C 78.182 68.446,78.215 68.434,78.287 68.083 C 78.452 67.287,78.443 67.069,78.239 66.833 C 78.121 66.695,77.943 66.372,77.845 66.115 C 77.747 65.857,77.592 65.693,77.500 65.750 C 77.408 65.807,77.333 65.705,77.333 65.523 C 77.333 65.017,77.155 64.667,76.899 64.667 C 76.765 64.667,76.667 64.498,76.667 64.268 C 76.667 64.048,76.554 63.826,76.417 63.773 C 76.279 63.720,76.167 63.518,76.167 63.323 C 76.167 63.112,76.035 62.934,75.843 62.884 C 75.624 62.827,75.502 62.628,75.468 62.275 C 75.437 61.963,75.332 61.767,75.208 61.792 C 75.031 61.827,74.912 61.391,74.980 60.958 C 74.991 60.890,74.938 60.833,74.863 60.833 C 74.673 60.833,73.833 59.525,73.833 59.230 C 73.833 59.098,73.723 58.947,73.588 58.895 C 73.453 58.844,73.295 58.547,73.236 58.235 C 73.178 57.924,73.069 57.708,72.993 57.754 C 72.809 57.868,72.673 57.622,72.630 57.098 C 72.610 56.861,72.498 56.667,72.380 56.667 C 72.263 56.667,72.167 56.517,72.167 56.333 C 72.167 55.883,71.779 55.912,71.036 56.417 C 70.699 56.646,70.293 56.833,70.134 56.833 C 69.975 56.833,69.598 56.938,69.297 57.066 C 66.899 58.083,60.421 58.504,58.238 57.784 C 57.786 57.635,56.780 57.318,56.002 57.080 C 51.067 55.571,46.741 52.095,44.023 47.453 C 43.552 46.648,43.167 45.944,43.167 45.888 C 43.167 45.832,43.026 45.478,42.855 45.102 C 42.195 43.654,42.000 43.146,41.998 42.869 C 41.997 42.712,41.834 42.096,41.637 41.500 C 41.090 39.852,41.089 33.409,41.635 31.922 C 41.836 31.376,42.000 30.771,42.000 30.579 C 42.000 30.387,42.110 30.085,42.245 29.907 C 42.379 29.729,42.492 29.447,42.495 29.281 C 42.500 28.963,43.307 27.142,43.505 27.000 C 43.569 26.954,43.680 26.731,43.751 26.503 C 43.877 26.099,44.375 25.317,44.792 24.868 C 44.906 24.744,45.000 24.536,45.000 24.405 C 45.000 24.274,45.059 24.167,45.131 24.167 C 45.203 24.167,45.502 23.855,45.794 23.474 C 47.032 21.863,50.130 19.000,50.635 19.000 C 50.735 19.000,50.877 18.895,50.950 18.766 C 51.023 18.638,51.430 18.349,51.853 18.124 C 52.276 17.900,52.799 17.593,53.015 17.442 C 53.231 17.290,53.532 17.167,53.683 17.167 C 53.835 17.167,54.053 17.054,54.167 16.917 C 54.281 16.779,54.534 16.666,54.729 16.666 C 54.924 16.665,55.293 16.555,55.549 16.422 C 55.805 16.288,56.292 16.129,56.632 16.068 C 56.972 16.006,57.392 15.883,57.565 15.793 C 57.805 15.669,60.699 15.289,62.417 15.156 C 62.955 15.115,67.323 15.649,67.593 15.789 C 67.771 15.882,68.271 16.009,68.704 16.072 C 69.138 16.135,69.531 16.248,69.578 16.324 C 69.625 16.401,69.870 16.513,70.123 16.574 C 70.702 16.713,73.398 18.022,73.472 18.201 C 73.503 18.274,73.597 18.333,73.682 18.333 C 73.767 18.333,74.230 18.606,74.710 18.939 C 78.078 21.277,80.203 23.755,81.981 27.417 C 83.028 29.573,83.184 30.038,83.825 32.917 C 84.264 34.889,84.150 39.982,83.637 41.326 C 83.548 41.559,83.412 42.050,83.334 42.417 C 83.088 43.571,82.469 45.169,81.785 46.408 C 81.529 46.871,81.232 47.456,81.124 47.708 C 81.015 47.960,80.872 48.167,80.805 48.167 C 80.606 48.167,80.127 49.301,80.245 49.492 C 80.304 49.588,80.452 49.667,80.573 49.667 C 80.694 49.667,80.886 49.779,81.000 49.917 C 81.114 50.054,81.377 50.167,81.584 50.167 C 81.821 50.167,81.994 50.291,82.048 50.500 C 82.098 50.691,82.276 50.833,82.464 50.833 C 82.645 50.833,82.886 50.946,83.000 51.083 C 83.114 51.221,83.311 51.333,83.437 51.333 C 83.563 51.333,83.667 51.446,83.667 51.583 C 83.667 51.803,83.852 51.902,84.188 51.860 C 84.246 51.852,84.427 51.994,84.589 52.173 C 84.752 52.353,85.015 52.500,85.175 52.500 C 85.334 52.500,85.508 52.612,85.560 52.750 C 85.613 52.887,85.846 53.000,86.078 53.000 C 86.345 53.000,86.500 53.093,86.500 53.254 C 86.500 53.394,86.680 53.577,86.900 53.661 C 87.121 53.744,87.350 53.892,87.410 53.990 C 87.470 54.087,87.703 54.167,87.927 54.167 C 88.222 54.167,88.333 54.258,88.333 54.500 C 88.333 54.683,88.421 54.833,88.529 54.833 C 88.874 54.833,89.991 55.411,89.996 55.591 C 90.012 56.255,92.167 56.310,92.167 55.646 C 92.167 55.474,92.278 55.333,92.413 55.333 C 92.549 55.333,92.707 55.149,92.763 54.924 C 92.820 54.698,92.971 54.426,93.100 54.320 C 93.228 54.213,93.333 53.997,93.333 53.839 C 93.333 53.681,93.483 53.416,93.667 53.250 C 93.850 53.084,94.000 52.806,94.000 52.631 C 94.000 52.456,94.067 52.355,94.149 52.406 C 94.328 52.516,94.500 52.118,94.500 51.596 C 94.500 51.388,94.633 51.098,94.796 50.950 C 94.959 50.803,95.110 50.478,95.130 50.228 C 95.151 49.979,95.280 49.651,95.417 49.499 C 95.554 49.348,95.667 48.920,95.667 48.548 C 95.667 48.038,95.740 47.853,95.966 47.794 C 96.187 47.736,96.277 47.525,96.308 46.986 C 96.332 46.585,96.460 46.136,96.592 45.990 C 96.743 45.824,96.833 45.369,96.833 44.779 C 96.833 44.049,96.890 43.833,97.083 43.833 C 97.221 43.833,97.324 43.777,97.314 43.708 C 97.212 43.062,97.367 39.168,97.492 39.245 C 98.093 39.616,98.263 34.889,97.667 34.378 C 97.366 34.120,97.333 33.886,97.333 31.958 C 97.333 30.214,97.288 29.805,97.083 29.727 C 96.895 29.655,96.833 29.350,96.833 28.482 C 96.833 27.624,96.776 27.333,96.607 27.333 C 96.458 27.333,96.345 27.038,96.278 26.477 C 96.223 26.006,96.062 25.494,95.922 25.339 C 95.781 25.184,95.667 24.817,95.667 24.523 C 95.667 24.217,95.566 23.951,95.431 23.899 C 95.296 23.847,95.146 23.456,95.082 22.987 C 95.019 22.536,94.900 22.209,94.816 22.260 C 94.658 22.358,94.597 22.232,94.426 21.452 C 94.370 21.196,94.251 21.031,94.162 21.086 C 94.025 21.171,93.917 20.706,93.979 20.297 C 93.989 20.231,93.854 20.100,93.679 20.006 C 93.504 19.913,93.311 19.610,93.250 19.333 C 93.189 19.057,93.071 18.873,92.986 18.925 C 92.902 18.977,92.833 18.828,92.833 18.593 C 92.833 18.278,92.746 18.167,92.500 18.167 C 92.230 18.167,92.167 18.056,92.167 17.583 C 92.167 17.176,92.091 17.000,91.917 17.000 C 91.779 17.000,91.667 16.904,91.667 16.787 C 91.667 16.670,91.517 16.446,91.333 16.289 C 91.150 16.132,91.000 15.853,91.000 15.668 C 91.000 15.482,90.889 15.333,90.750 15.333 C 90.612 15.333,90.500 15.269,90.500 15.191 C 90.500 14.981,89.711 14.167,89.508 14.167 C 89.412 14.167,89.333 14.052,89.333 13.911 C 89.333 13.771,89.221 13.613,89.083 13.560 C 88.946 13.508,88.833 13.376,88.833 13.269 C 88.833 13.162,88.683 12.965,88.500 12.833 C 88.317 12.701,88.167 12.515,88.167 12.419 C 88.167 12.324,87.965 12.097,87.719 11.915 C 87.472 11.732,87.085 11.377,86.858 11.125 C 86.631 10.873,86.345 10.667,86.222 10.667 C 86.100 10.667,86.000 10.547,86.000 10.401 C 86.000 10.255,85.855 10.098,85.678 10.051 C 85.501 10.005,85.316 9.862,85.267 9.734 C 85.217 9.605,85.062 9.500,84.922 9.500 C 84.782 9.500,84.667 9.396,84.667 9.269 C 84.667 9.143,84.509 8.998,84.317 8.947 C 84.124 8.897,84.011 8.784,84.066 8.695 C 84.177 8.515,83.803 8.333,83.320 8.333 C 83.144 8.333,83.000 8.230,83.000 8.103 C 83.000 7.976,82.848 7.832,82.662 7.784 C 82.476 7.735,82.345 7.599,82.370 7.480 C 82.416 7.268,82.321 7.228,81.667 7.188 C 81.483 7.176,81.333 7.054,81.333 6.917 C 81.333 6.778,81.185 6.667,81.000 6.667 C 80.817 6.667,80.667 6.560,80.667 6.430 C 80.667 6.300,80.447 6.145,80.178 6.086 C 79.910 6.027,79.600 5.871,79.491 5.739 C 79.382 5.608,79.131 5.500,78.933 5.500 C 78.736 5.500,78.446 5.350,78.289 5.167 C 78.132 4.983,77.815 4.833,77.585 4.833 C 77.324 4.833,77.167 4.739,77.167 4.583 C 77.167 4.403,76.981 4.333,76.500 4.333 C 76.077 4.333,75.849 4.262,75.875 4.137 C 75.900 4.018,75.626 3.915,75.172 3.872 C 74.685 3.827,74.349 3.692,74.204 3.485 C 74.051 3.266,73.782 3.167,73.344 3.167 C 72.982 3.167,72.618 3.059,72.500 2.917 C 72.356 2.743,71.972 2.667,71.239 2.667 C 70.400 2.667,70.141 2.603,69.968 2.356 C 69.783 2.093,69.497 2.041,68.085 2.012 C 66.910 1.989,66.342 1.908,66.155 1.739 C 65.766 1.387,59.517 1.389,59.161 1.741 M109.108 4.448 C 108.927 4.628,108.986 46.887,109.167 47.167 C 109.256 47.304,109.343 47.342,109.361 47.250 C 109.379 47.158,109.450 47.908,109.517 48.917 C 109.662 51.075,109.679 51.179,109.862 51.065 C 110.060 50.943,110.143 51.269,110.207 52.417 C 110.245 53.088,110.330 53.403,110.465 53.375 C 110.597 53.348,110.674 53.593,110.688 54.083 C 110.716 55.127,110.724 55.163,110.958 55.307 C 111.072 55.378,111.182 55.638,111.202 55.885 C 111.224 56.146,111.363 56.373,111.536 56.428 C 111.742 56.494,111.833 56.691,111.833 57.074 C 111.833 57.378,111.938 57.713,112.067 57.820 C 112.298 58.011,112.584 58.787,112.523 59.054 C 112.506 59.130,112.569 59.143,112.664 59.085 C 112.763 59.024,112.881 59.196,112.939 59.489 C 112.996 59.770,113.145 60.000,113.271 60.000 C 113.397 60.000,113.500 60.149,113.500 60.332 C 113.500 60.514,113.650 60.758,113.833 60.872 C 114.017 60.987,114.167 61.177,114.167 61.295 C 114.167 61.414,114.279 61.554,114.417 61.606 C 114.554 61.659,114.667 61.809,114.667 61.940 C 114.667 62.070,114.929 62.407,115.250 62.689 C 115.571 62.971,115.833 63.343,115.833 63.517 C 115.833 63.695,115.949 63.833,116.099 63.833 C 116.245 63.833,116.404 63.983,116.452 64.167 C 116.500 64.350,116.634 64.500,116.750 64.500 C 116.866 64.500,117.002 64.658,117.053 64.850 C 117.103 65.043,117.222 65.152,117.316 65.094 C 117.411 65.036,117.634 65.134,117.812 65.312 C 117.990 65.490,118.274 65.666,118.443 65.703 C 118.612 65.740,118.729 65.866,118.704 65.983 C 118.678 66.100,118.809 66.235,118.995 66.284 C 119.181 66.332,119.333 66.476,119.333 66.603 C 119.333 66.730,119.486 66.833,119.672 66.833 C 119.858 66.833,120.053 66.945,120.106 67.082 C 120.159 67.219,120.269 67.290,120.351 67.239 C 120.433 67.188,120.500 67.226,120.500 67.323 C 120.500 67.421,120.580 67.500,120.679 67.500 C 120.777 67.500,120.970 67.613,121.107 67.750 C 121.245 67.888,121.539 68.000,121.762 68.000 C 122.011 68.000,122.167 68.096,122.167 68.250 C 122.167 68.421,122.338 68.500,122.710 68.500 C 123.073 68.500,123.322 68.611,123.461 68.833 C 123.576 69.017,123.847 69.167,124.064 69.167 C 124.282 69.167,124.553 69.279,124.667 69.417 C 124.792 69.568,125.157 69.667,125.593 69.667 C 126.162 69.667,126.333 69.735,126.416 69.997 C 126.473 70.178,126.572 70.319,126.635 70.310 C 127.381 70.204,128.500 70.368,128.500 70.583 C 128.500 70.785,128.762 70.833,129.862 70.833 C 130.925 70.833,131.294 70.897,131.546 71.125 C 132.213 71.729,144.287 71.599,143.911 70.992 C 143.852 70.896,144.413 70.833,145.323 70.833 C 146.554 70.833,146.833 70.787,146.833 70.583 C 146.833 70.391,147.046 70.333,147.752 70.333 C 148.464 70.333,148.734 70.258,148.955 70.000 C 149.144 69.780,149.447 69.667,149.850 69.667 C 150.188 69.667,150.551 69.555,150.667 69.417 C 150.781 69.279,151.097 69.167,151.369 69.167 C 151.724 69.167,151.889 69.072,151.952 68.833 C 152.014 68.596,152.179 68.500,152.525 68.500 C 152.803 68.500,153.051 68.393,153.106 68.250 C 153.159 68.113,153.392 68.000,153.624 68.000 C 153.857 68.000,154.132 67.883,154.236 67.741 C 154.340 67.598,154.536 67.459,154.671 67.433 C 155.159 67.336,155.496 67.129,155.406 66.983 C 155.355 66.900,155.468 66.833,155.657 66.833 C 155.846 66.833,156.003 66.740,156.007 66.625 C 156.015 66.383,157.077 65.667,157.428 65.667 C 157.559 65.667,157.667 65.559,157.667 65.428 C 157.667 65.297,157.817 65.142,158.000 65.083 C 158.183 65.025,158.333 64.870,158.333 64.739 C 158.333 64.607,158.446 64.500,158.583 64.500 C 158.721 64.500,158.833 64.428,158.833 64.341 C 158.833 64.134,159.634 63.333,159.841 63.333 C 159.928 63.333,160.000 63.221,160.000 63.083 C 160.000 62.946,160.112 62.833,160.250 62.833 C 160.387 62.833,160.500 62.721,160.500 62.583 C 160.500 62.446,160.643 62.190,160.818 62.015 C 160.993 61.840,161.163 61.559,161.195 61.390 C 161.228 61.221,161.366 61.083,161.502 61.083 C 161.639 61.083,161.750 61.003,161.750 60.905 C 161.750 60.807,161.881 60.595,162.042 60.435 C 162.202 60.274,162.333 59.969,162.333 59.758 C 162.333 59.511,162.455 59.340,162.671 59.284 C 162.857 59.235,162.999 59.133,162.985 59.056 C 162.904 58.597,163.032 58.167,163.250 58.167 C 163.425 58.167,163.500 57.991,163.500 57.583 C 163.500 57.206,163.573 57.015,163.708 57.042 C 163.834 57.067,163.938 56.862,163.970 56.523 C 164.007 56.137,164.124 55.936,164.345 55.878 C 164.607 55.810,164.667 55.644,164.667 54.981 C 164.667 54.368,164.729 54.167,164.917 54.167 C 165.105 54.167,165.167 53.964,165.167 53.339 C 165.167 52.684,165.236 52.475,165.498 52.334 C 165.681 52.237,165.822 52.103,165.812 52.037 C 165.728 51.483,165.866 49.500,165.983 49.573 C 166.264 49.746,166.333 49.136,166.333 46.486 C 166.333 44.330,166.377 43.833,166.566 43.833 C 166.986 43.833,166.994 43.470,166.996 24.172 L 166.998 5.023 166.560 4.678 C 166.132 4.341,165.951 4.333,158.811 4.333 L 151.500 4.333 151.500 24.357 C 151.500 42.571,151.476 44.398,151.232 44.576 C 151.035 44.720,150.942 45.146,150.884 46.178 C 150.835 47.055,150.716 47.682,150.569 47.846 C 150.439 47.991,150.333 48.373,150.333 48.696 C 150.333 49.066,150.213 49.390,150.007 49.577 C 149.827 49.740,149.686 49.920,149.693 49.978 C 149.752 50.447,149.627 50.833,149.417 50.833 C 149.263 50.833,149.167 50.990,149.167 51.240 C 149.167 51.464,149.080 51.701,148.974 51.766 C 148.845 51.846,148.826 51.808,148.918 51.651 C 148.998 51.512,148.992 51.473,148.902 51.556 C 148.752 51.692,148.729 51.767,148.688 52.239 C 148.676 52.370,148.517 52.525,148.333 52.583 C 148.150 52.642,148.000 52.797,148.000 52.928 C 148.000 53.059,147.887 53.167,147.750 53.167 C 147.612 53.167,147.500 53.253,147.500 53.359 C 147.500 53.588,146.322 54.738,145.936 54.886 C 145.788 54.943,145.667 55.067,145.667 55.161 C 145.667 55.256,145.516 55.333,145.332 55.333 C 145.147 55.333,144.868 55.483,144.711 55.667 C 144.554 55.850,144.259 56.000,144.055 56.000 C 143.850 56.000,143.623 56.104,143.550 56.231 C 143.437 56.427,143.050 56.517,141.549 56.698 C 141.438 56.711,141.382 56.777,141.423 56.844 C 141.584 57.105,140.846 57.167,137.570 57.167 C 134.656 57.167,134.167 57.131,134.167 56.917 C 134.167 56.779,134.148 56.663,134.125 56.658 C 134.102 56.654,133.746 56.608,133.333 56.558 C 132.921 56.507,132.465 56.361,132.320 56.233 C 132.175 56.105,131.898 56.000,131.703 56.000 C 131.509 56.000,131.284 55.883,131.204 55.740 C 131.079 55.515,130.808 55.399,130.292 55.346 C 130.223 55.339,130.167 55.221,130.167 55.083 C 130.167 54.946,130.054 54.833,129.917 54.833 C 129.633 54.833,128.333 53.594,128.333 53.323 C 128.333 53.226,128.259 53.193,128.167 53.250 C 128.076 53.306,127.915 53.163,127.810 52.931 C 127.704 52.700,127.562 52.545,127.495 52.587 C 127.427 52.629,127.332 52.514,127.285 52.331 C 127.237 52.149,127.078 52.000,126.932 52.000 C 126.740 52.000,126.667 51.839,126.667 51.417 C 126.667 51.009,126.591 50.833,126.417 50.833 C 126.251 50.833,126.167 50.668,126.167 50.345 C 126.167 50.002,126.067 49.824,125.833 49.750 C 125.559 49.663,125.500 49.498,125.500 48.822 C 125.500 48.202,125.438 48.000,125.250 48.000 C 125.055 48.000,125.000 47.775,125.000 46.977 C 125.000 46.261,124.925 45.898,124.750 45.768 C 124.531 45.606,124.500 43.136,124.498 25.377 C 124.496 10.663,124.443 5.058,124.306 4.756 L 124.116 4.340 116.666 4.340 C 112.568 4.340,109.167 4.389,109.108 4.448 M199.813 4.498 C 199.801 4.591,199.773 4.742,199.750 4.833 C 199.727 4.925,199.699 5.150,199.688 5.333 C 199.676 5.517,199.554 5.667,199.417 5.667 C 199.279 5.667,199.176 5.723,199.186 5.792 C 199.281 6.389,199.134 7.167,198.927 7.167 C 198.770 7.167,198.669 7.383,198.635 7.792 C 198.600 8.213,198.502 8.417,198.333 8.417 C 198.083 8.417,198.059 8.478,198.021 9.250 C 198.009 9.487,197.910 9.649,197.792 9.625 C 197.654 9.597,197.566 9.851,197.533 10.374 C 197.495 10.953,197.395 11.211,197.158 11.338 C 196.969 11.439,196.833 11.686,196.833 11.928 C 196.833 12.157,196.721 12.387,196.583 12.440 C 196.433 12.497,196.333 12.749,196.333 13.070 C 196.333 13.375,196.189 13.759,195.997 13.965 C 195.811 14.164,195.661 14.366,195.663 14.413 C 195.689 15.051,195.640 15.336,195.517 15.261 C 195.338 15.150,195.167 15.549,195.167 16.079 C 195.167 16.291,195.058 16.506,194.926 16.557 C 194.793 16.608,194.636 16.913,194.575 17.235 C 194.515 17.558,194.360 17.908,194.233 18.014 C 194.105 18.121,194.000 18.461,194.000 18.770 C 194.000 19.160,193.923 19.333,193.750 19.333 C 193.579 19.333,193.500 19.505,193.500 19.877 C 193.500 20.239,193.389 20.489,193.167 20.628 C 192.953 20.762,192.833 21.017,192.833 21.340 C 192.833 21.634,192.729 21.884,192.583 21.940 C 192.420 22.002,192.333 22.262,192.333 22.684 C 192.333 23.128,192.260 23.333,192.101 23.333 C 191.850 23.333,191.667 23.682,191.667 24.160 C 191.667 24.325,191.554 24.553,191.417 24.667 C 191.279 24.781,191.167 25.090,191.167 25.354 C 191.167 25.669,191.081 25.833,190.917 25.833 C 190.779 25.833,190.679 25.890,190.695 25.958 C 190.776 26.319,190.434 27.333,190.231 27.333 C 190.078 27.333,190.000 27.530,190.000 27.917 C 190.000 28.334,189.926 28.500,189.740 28.500 C 189.597 28.500,189.518 28.561,189.565 28.636 C 189.611 28.711,189.465 29.169,189.241 29.653 C 189.017 30.137,188.833 30.705,188.833 30.915 C 188.833 31.126,188.721 31.341,188.583 31.394 C 188.437 31.450,188.333 31.699,188.333 31.995 C 188.333 32.333,188.251 32.500,188.083 32.500 C 187.946 32.500,187.830 32.519,187.825 32.542 C 187.820 32.565,187.774 32.921,187.723 33.333 C 187.671 33.746,187.525 34.143,187.398 34.217 C 187.271 34.290,187.167 34.553,187.167 34.802 C 187.167 35.073,187.033 35.336,186.833 35.461 C 186.650 35.576,186.500 35.847,186.500 36.064 C 186.500 36.282,186.387 36.553,186.250 36.667 C 186.112 36.781,186.000 37.127,186.000 37.437 C 186.000 37.778,185.868 38.132,185.667 38.333 C 185.483 38.517,185.333 38.817,185.333 39.000 C 185.333 39.185,185.222 39.333,185.083 39.333 C 184.904 39.333,184.833 39.516,184.833 39.974 C 184.833 40.377,184.723 40.715,184.537 40.883 C 184.374 41.031,184.224 41.358,184.203 41.611 C 184.182 41.864,184.052 42.134,183.916 42.211 C 183.769 42.293,183.667 42.589,183.667 42.935 C 183.667 43.256,183.597 43.477,183.512 43.424 C 183.308 43.298,183.153 43.565,183.052 44.219 C 183.007 44.511,182.864 44.868,182.735 45.013 C 182.606 45.158,182.500 45.514,182.500 45.805 C 182.500 46.139,182.423 46.318,182.292 46.292 C 182.166 46.267,182.062 46.470,182.030 46.803 C 182.001 47.107,181.832 47.501,181.655 47.678 C 181.478 47.855,181.333 48.192,181.333 48.427 C 181.333 48.661,181.267 48.812,181.186 48.762 C 181.014 48.656,180.839 49.214,180.836 49.875 C 180.834 50.127,180.777 50.324,180.708 50.314 C 180.291 50.248,180.167 50.387,180.167 50.917 C 180.167 51.324,180.091 51.500,179.917 51.500 C 179.779 51.500,179.676 51.556,179.686 51.625 C 179.748 52.017,179.649 52.871,179.553 52.775 C 179.416 52.638,179.000 53.575,179.000 54.019 C 179.000 54.192,178.887 54.333,178.750 54.333 C 178.575 54.333,178.500 54.509,178.500 54.917 C 178.500 55.324,178.425 55.500,178.250 55.500 C 178.112 55.500,177.994 55.594,177.988 55.708 C 177.954 56.275,177.802 56.759,177.579 57.004 C 177.444 57.154,177.333 57.506,177.333 57.787 C 177.333 58.087,177.230 58.337,177.083 58.394 C 176.944 58.447,176.833 58.695,176.833 58.955 C 176.833 59.239,176.704 59.501,176.500 59.628 C 176.260 59.778,176.167 60.017,176.167 60.484 C 176.167 60.905,176.080 61.164,175.917 61.227 C 175.771 61.283,175.667 61.533,175.667 61.828 C 175.667 62.149,175.582 62.333,175.434 62.333 C 175.183 62.333,175.000 62.682,175.000 63.160 C 175.000 63.325,174.887 63.553,174.750 63.667 C 174.609 63.784,174.500 64.147,174.500 64.501 C 174.500 64.991,174.426 65.147,174.162 65.216 C 173.976 65.265,173.835 65.367,173.848 65.444 C 173.929 65.903,173.801 66.333,173.583 66.333 C 173.417 66.333,173.333 66.500,173.333 66.834 C 173.333 67.109,173.183 67.614,173.000 67.956 C 172.817 68.299,172.667 68.711,172.667 68.873 C 172.667 69.034,172.549 69.167,172.406 69.167 C 172.213 69.167,172.159 69.306,172.198 69.708 L 172.250 70.250 180.208 70.293 L 188.167 70.337 188.167 69.752 C 188.167 69.389,188.293 69.040,188.500 68.833 C 188.706 68.627,188.833 68.278,188.833 67.917 C 188.833 67.539,188.907 67.348,189.042 67.375 C 189.172 67.401,189.269 67.183,189.302 66.792 C 189.334 66.403,189.439 66.167,189.579 66.167 C 189.711 66.167,189.850 65.896,189.915 65.510 C 189.976 65.148,190.133 64.764,190.263 64.656 C 190.393 64.548,190.500 64.214,190.500 63.914 C 190.500 63.583,190.598 63.331,190.750 63.273 C 190.887 63.220,191.000 63.078,191.000 62.957 C 191.000 62.836,191.150 62.443,191.333 62.083 C 191.517 61.724,191.667 61.228,191.667 60.983 C 191.667 60.737,191.779 60.492,191.917 60.440 C 192.074 60.380,192.167 60.125,192.167 59.755 C 192.167 59.333,192.240 59.167,192.427 59.167 C 192.569 59.167,192.640 59.092,192.583 59.000 C 192.527 58.908,192.560 58.833,192.657 58.833 C 192.754 58.833,192.833 58.571,192.833 58.250 C 192.833 57.843,192.909 57.667,193.083 57.667 C 193.256 57.667,193.333 57.493,193.333 57.103 C 193.333 55.944,192.626 56.000,207.327 56.000 L 220.500 56.000 220.500 56.500 C 220.500 56.833,220.583 57.000,220.750 57.000 C 220.921 57.000,221.007 57.185,221.021 57.583 C 221.053 58.498,221.231 58.916,221.512 58.743 C 221.597 58.690,221.667 58.906,221.667 59.222 C 221.667 59.580,221.761 59.834,221.917 59.894 C 222.061 59.949,222.167 60.198,222.167 60.483 C 222.167 60.754,222.271 61.081,222.399 61.209 C 222.527 61.336,222.674 61.736,222.726 62.096 C 222.778 62.455,222.824 62.769,222.827 62.792 C 222.831 62.815,222.946 62.833,223.083 62.833 C 223.240 62.833,223.333 62.992,223.333 63.258 C 223.333 63.492,223.452 63.912,223.596 64.191 C 223.741 64.471,223.890 64.861,223.927 65.058 C 223.965 65.255,224.109 65.500,224.248 65.602 C 224.390 65.706,224.500 66.043,224.500 66.376 C 224.500 66.745,224.593 67.000,224.750 67.060 C 224.887 67.113,225.000 67.340,225.000 67.564 C 225.000 68.145,225.165 68.500,225.434 68.500 C 225.589 68.500,225.667 68.696,225.667 69.083 C 225.667 69.491,225.742 69.667,225.917 69.667 C 226.056 69.667,226.167 69.815,226.167 70.000 C 226.167 70.329,226.278 70.333,234.167 70.333 L 242.167 70.333 242.167 69.842 C 242.167 69.571,242.058 69.289,241.926 69.215 C 241.786 69.137,241.667 68.778,241.643 68.363 C 241.619 67.969,241.505 67.593,241.388 67.527 C 241.272 67.462,241.149 67.231,241.116 67.014 C 241.083 66.797,240.931 66.528,240.778 66.416 C 240.625 66.305,240.500 66.052,240.500 65.856 C 240.500 65.660,240.350 65.219,240.167 64.877 C 239.983 64.535,239.833 64.085,239.833 63.877 C 239.833 63.653,239.732 63.500,239.583 63.500 C 239.416 63.500,239.333 63.333,239.333 62.995 C 239.333 62.699,239.229 62.450,239.083 62.394 C 238.929 62.334,238.833 62.081,238.833 61.732 C 238.833 61.421,238.758 61.167,238.667 61.167 C 238.575 61.167,238.519 61.073,238.542 60.958 C 238.565 60.844,238.490 60.769,238.375 60.792 C 238.247 60.817,238.167 60.649,238.167 60.354 C 238.167 60.090,238.054 59.781,237.917 59.667 C 237.779 59.553,237.667 59.325,237.667 59.160 C 237.667 58.682,237.483 58.333,237.232 58.333 C 237.082 58.333,236.993 58.128,236.979 57.750 C 236.950 56.943,236.937 56.880,236.765 56.722 C 236.675 56.640,236.668 56.685,236.748 56.833 C 236.841 57.006,236.828 57.032,236.705 56.917 C 236.608 56.825,236.503 56.525,236.473 56.250 C 236.442 55.975,236.323 55.675,236.209 55.583 C 236.094 55.492,235.983 55.199,235.962 54.933 C 235.938 54.632,235.812 54.420,235.628 54.372 C 235.422 54.318,235.333 54.131,235.333 53.751 C 235.333 53.452,235.227 53.119,235.096 53.011 C 234.966 52.903,234.809 52.518,234.748 52.157 C 234.683 51.771,234.544 51.500,234.412 51.500 C 234.272 51.500,234.167 51.263,234.135 50.875 C 234.103 50.484,234.005 50.266,233.875 50.292 C 233.745 50.318,233.667 50.143,233.667 49.826 C 233.667 49.548,233.517 49.158,233.333 48.962 C 233.150 48.765,233.000 48.437,233.000 48.232 C 233.000 47.715,232.827 47.318,232.649 47.427 C 232.567 47.478,232.500 47.293,232.500 47.016 C 232.500 46.682,232.387 46.451,232.167 46.333 C 231.934 46.209,231.833 45.984,231.833 45.591 C 231.833 44.900,231.682 44.471,231.483 44.594 C 231.400 44.645,231.333 44.501,231.333 44.273 C 231.333 43.689,231.169 43.333,230.899 43.333 C 230.745 43.333,230.667 43.137,230.667 42.750 C 230.667 42.343,230.591 42.167,230.417 42.167 C 230.246 42.167,230.160 41.981,230.146 41.583 C 230.114 40.685,230.083 40.580,229.867 40.625 C 229.757 40.648,229.657 40.517,229.646 40.333 C 229.606 39.701,229.582 39.639,229.292 39.427 C 229.131 39.309,229.000 39.050,229.000 38.850 C 229.000 38.650,228.850 38.193,228.667 37.833 C 228.483 37.474,228.333 37.027,228.333 36.840 C 228.333 36.653,228.240 36.519,228.125 36.542 C 227.995 36.568,227.897 36.349,227.865 35.958 C 227.831 35.549,227.730 35.333,227.573 35.333 C 227.414 35.333,227.333 35.152,227.333 34.790 C 227.333 34.427,227.223 34.178,227.000 34.039 C 226.792 33.909,226.667 33.650,226.667 33.352 C 226.667 33.089,226.554 32.781,226.417 32.667 C 226.279 32.553,226.167 32.325,226.167 32.160 C 226.167 31.682,225.983 31.333,225.732 31.333 C 225.583 31.333,225.500 31.145,225.500 30.805 C 225.500 30.514,225.390 30.155,225.255 30.006 C 225.121 29.857,224.992 29.497,224.970 29.205 C 224.948 28.914,224.837 28.640,224.724 28.596 C 224.611 28.553,224.468 28.251,224.407 27.925 C 224.343 27.585,224.198 27.333,224.065 27.333 C 223.913 27.333,223.833 27.140,223.833 26.770 C 223.833 26.461,223.729 26.121,223.601 26.014 C 223.473 25.908,223.319 25.558,223.258 25.235 C 223.198 24.913,223.040 24.608,222.907 24.557 C 222.763 24.501,222.667 24.238,222.667 23.899 C 222.667 23.507,222.590 23.333,222.417 23.333 C 222.254 23.333,222.167 23.170,222.167 22.865 C 222.167 22.607,222.017 22.235,221.833 22.038 C 221.630 21.820,221.500 21.450,221.500 21.090 C 221.500 20.677,221.425 20.500,221.250 20.500 C 221.075 20.500,221.000 20.324,221.000 19.917 C 221.000 19.444,220.937 19.333,220.667 19.333 C 220.379 19.333,220.333 19.222,220.333 18.518 C 220.333 17.947,220.258 17.674,220.083 17.606 C 219.946 17.554,219.833 17.345,219.833 17.143 C 219.833 16.941,219.723 16.654,219.587 16.504 C 219.452 16.355,219.319 16.086,219.291 15.908 C 219.219 15.445,219.003 15.145,218.822 15.257 C 218.736 15.310,218.666 15.067,218.666 14.718 C 218.665 14.365,218.517 13.861,218.333 13.583 C 218.151 13.308,218.002 12.910,218.001 12.698 C 218.000 12.487,217.930 12.357,217.845 12.410 C 217.634 12.540,217.543 12.356,217.477 11.667 C 217.447 11.346,217.327 11.008,217.211 10.917 C 217.095 10.825,216.984 10.544,216.964 10.291 C 216.942 10.020,216.806 9.794,216.630 9.738 C 216.430 9.675,216.333 9.477,216.333 9.132 C 216.333 8.851,216.222 8.537,216.087 8.435 C 215.951 8.333,215.823 8.006,215.801 7.708 C 215.780 7.410,215.699 7.167,215.621 7.167 C 215.544 7.167,215.528 7.090,215.586 6.996 C 215.644 6.902,215.597 6.846,215.481 6.871 C 215.365 6.896,215.244 6.767,215.212 6.583 C 215.060 5.713,214.979 5.494,214.839 5.580 C 214.755 5.632,214.664 5.391,214.635 5.045 L 214.583 4.417 207.208 4.373 C 202.334 4.345,199.826 4.387,199.813 4.498 M251.361 4.625 C 250.915 5.006,250.958 1.221,250.980 37.870 L 251.000 70.324 258.625 70.287 L 266.250 70.250 266.333 50.583 C 266.379 39.767,266.478 31.012,266.553 31.128 C 266.628 31.244,266.760 31.296,266.845 31.243 C 266.930 31.190,267.000 31.260,267.000 31.399 C 267.000 31.537,267.094 31.710,267.208 31.783 C 267.481 31.958,268.167 32.939,268.167 33.154 C 268.167 33.246,268.319 33.403,268.505 33.502 C 268.691 33.602,268.796 33.760,268.738 33.853 C 268.680 33.946,268.791 34.064,268.983 34.114 C 269.176 34.164,269.333 34.279,269.333 34.368 C 269.333 34.458,269.482 34.720,269.664 34.952 C 269.846 35.183,269.958 35.433,269.912 35.508 C 269.866 35.582,269.980 35.691,270.164 35.749 C 270.349 35.808,270.501 35.944,270.503 36.053 C 270.504 36.161,270.692 36.427,270.920 36.642 C 271.147 36.858,271.333 37.144,271.333 37.277 C 271.333 37.411,271.408 37.473,271.500 37.417 C 271.592 37.360,271.667 37.429,271.667 37.570 C 271.667 37.712,271.923 38.091,272.236 38.414 C 272.550 38.737,272.944 39.295,273.111 39.655 C 273.279 40.015,273.555 40.348,273.725 40.394 C 273.903 40.442,273.984 40.558,273.917 40.667 C 273.848 40.778,273.943 40.893,274.150 40.947 C 274.342 40.998,274.500 41.135,274.500 41.252 C 274.500 41.369,274.602 41.503,274.726 41.551 C 274.851 41.599,274.999 41.869,275.055 42.152 C 275.116 42.457,275.262 42.667,275.412 42.667 C 275.552 42.667,275.667 42.738,275.667 42.825 C 275.667 43.054,276.422 43.833,276.644 43.833 C 276.748 43.833,276.833 43.947,276.833 44.087 C 276.833 44.491,277.990 46.167,278.269 46.167 C 278.351 46.167,278.515 46.384,278.632 46.649 C 278.750 46.914,279.030 47.331,279.256 47.574 C 279.482 47.818,279.667 48.126,279.667 48.259 C 279.667 48.391,279.779 48.500,279.917 48.500 C 280.054 48.500,280.167 48.578,280.167 48.674 C 280.167 48.769,280.317 49.008,280.500 49.205 C 280.683 49.402,280.833 49.699,280.833 49.865 C 280.833 50.031,280.908 50.167,281.000 50.167 C 281.363 50.167,282.134 51.123,282.511 52.042 C 282.615 52.294,282.809 52.500,282.943 52.500 C 283.077 52.500,283.137 52.580,283.076 52.678 C 283.016 52.776,283.124 52.897,283.317 52.947 C 283.516 52.999,283.667 53.174,283.667 53.353 C 283.667 53.525,283.772 53.667,283.900 53.667 C 284.029 53.667,284.207 53.873,284.297 54.125 C 284.386 54.377,284.645 54.781,284.871 55.023 C 285.098 55.266,285.330 55.584,285.387 55.732 C 285.443 55.879,285.604 56.000,285.745 56.000 C 285.885 56.000,286.000 56.142,286.000 56.316 C 286.000 56.489,286.112 56.674,286.250 56.727 C 286.387 56.780,286.500 56.970,286.500 57.150 C 286.500 57.331,286.649 57.525,286.833 57.583 C 287.017 57.642,287.167 57.797,287.167 57.928 C 287.167 58.059,287.270 58.167,287.397 58.167 C 287.605 58.167,287.897 58.728,287.851 59.042 C 287.841 59.110,287.938 59.167,288.065 59.167 C 288.193 59.167,288.345 59.357,288.403 59.590 C 288.462 59.823,288.583 59.969,288.672 59.914 C 288.761 59.859,288.833 59.927,288.833 60.065 C 288.833 60.204,288.927 60.377,289.042 60.450 C 289.157 60.523,289.476 60.921,289.750 61.333 C 290.024 61.746,290.343 62.143,290.458 62.217 C 290.573 62.290,290.667 62.459,290.667 62.592 C 290.667 62.725,290.779 62.833,290.917 62.833 C 291.054 62.833,291.167 62.915,291.167 63.015 C 291.167 63.116,291.316 63.387,291.498 63.618 C 291.680 63.850,291.791 64.100,291.745 64.174 C 291.699 64.249,291.813 64.357,291.998 64.416 C 292.182 64.475,292.333 64.667,292.333 64.845 C 292.333 65.022,292.438 65.167,292.566 65.167 C 292.693 65.167,292.841 65.279,292.894 65.417 C 292.946 65.554,293.104 65.667,293.245 65.667 C 293.385 65.667,293.500 65.810,293.500 65.986 C 293.500 66.458,293.680 66.845,293.851 66.739 C 293.933 66.688,294.000 66.729,294.000 66.830 C 294.000 67.099,294.700 68.000,294.908 68.000 C 295.089 68.000,295.316 68.359,295.673 69.208 C 295.779 69.460,295.962 69.667,296.080 69.667 C 296.198 69.667,296.334 69.817,296.382 70.000 C 296.469 70.333,308.910 70.549,309.736 70.232 C 309.976 70.140,310.000 67.120,309.998 37.691 C 309.996 6.665,309.972 4.394,309.659 4.588 C 309.584 4.634,309.475 4.594,309.416 4.500 C 309.345 4.385,306.895 4.330,302.081 4.337 L 294.852 4.347 294.726 4.715 C 294.656 4.918,294.587 5.140,294.571 5.208 C 294.555 5.277,294.532 13.771,294.521 24.083 C 294.502 40.630,294.471 42.833,294.250 42.833 C 294.112 42.833,294.000 42.689,294.000 42.514 C 294.000 42.031,293.818 41.656,293.638 41.768 C 293.550 41.822,293.436 41.709,293.386 41.517 C 293.336 41.324,293.191 41.167,293.064 41.167 C 292.937 41.167,292.833 41.017,292.833 40.833 C 292.833 40.611,292.722 40.500,292.500 40.500 C 292.256 40.500,292.167 40.389,292.167 40.083 C 292.167 39.824,292.072 39.667,291.917 39.667 C 291.764 39.667,291.667 39.511,291.667 39.269 C 291.667 39.006,291.549 38.841,291.317 38.781 C 291.124 38.730,291.013 38.614,291.069 38.523 C 291.125 38.432,291.020 38.309,290.836 38.251 C 290.651 38.192,290.500 38.081,290.500 38.004 C 290.500 37.798,289.628 36.500,289.490 36.500 C 289.425 36.500,289.331 36.342,289.281 36.150 C 289.230 35.957,289.118 35.844,289.030 35.898 C 288.896 35.981,288.693 35.610,288.606 35.125 C 288.593 35.056,288.518 35.005,288.437 35.011 C 288.287 35.021,287.919 34.472,287.733 33.958 C 287.675 33.798,287.487 33.667,287.314 33.667 C 287.141 33.667,287.000 33.579,287.000 33.471 C 287.000 33.049,286.400 32.019,286.108 31.940 C 285.931 31.891,285.849 31.776,285.917 31.667 C 285.986 31.555,285.890 31.440,285.683 31.386 C 285.491 31.336,285.333 31.228,285.333 31.147 C 285.333 31.066,285.183 30.850,285.000 30.667 C 284.817 30.483,284.667 30.183,284.667 30.000 C 284.667 29.815,284.556 29.667,284.417 29.667 C 284.279 29.667,284.167 29.596,284.167 29.509 C 284.167 29.279,283.412 28.500,283.189 28.500 C 283.085 28.500,283.000 28.347,283.000 28.160 C 283.000 27.973,282.853 27.661,282.672 27.468 C 282.492 27.274,282.384 27.053,282.432 26.975 C 282.480 26.897,282.365 26.833,282.177 26.833 C 281.944 26.833,281.833 26.725,281.833 26.500 C 281.833 26.317,281.730 26.167,281.603 26.167 C 281.395 26.167,281.103 25.605,281.149 25.292 C 281.159 25.223,281.075 25.185,280.962 25.208 C 280.850 25.231,280.732 25.081,280.701 24.875 C 280.669 24.669,280.536 24.500,280.405 24.500 C 280.274 24.500,280.167 24.385,280.167 24.245 C 280.167 24.104,280.054 23.946,279.917 23.894 C 279.779 23.841,279.667 23.693,279.667 23.566 C 279.667 23.438,279.608 23.333,279.536 23.333 C 279.464 23.333,279.262 23.090,279.087 22.792 C 278.911 22.494,278.558 22.065,278.301 21.838 C 278.044 21.611,277.833 21.330,277.833 21.213 C 277.833 21.096,277.681 20.847,277.494 20.661 C 277.307 20.474,277.202 20.244,277.261 20.149 C 277.319 20.055,277.209 19.936,277.017 19.886 C 276.824 19.836,276.667 19.691,276.667 19.564 C 276.667 19.437,276.563 19.333,276.436 19.333 C 276.228 19.333,275.937 18.772,275.982 18.458 C 275.992 18.390,275.896 18.333,275.768 18.333 C 275.641 18.333,275.488 18.143,275.430 17.910 C 275.371 17.677,275.251 17.531,275.162 17.586 C 275.073 17.641,275.000 17.532,275.000 17.343 C 275.000 17.149,274.891 17.000,274.750 17.000 C 274.612 17.000,274.500 16.896,274.500 16.769 C 274.500 16.643,274.350 16.500,274.167 16.452 C 273.880 16.377,273.820 16.248,273.836 15.747 C 273.838 15.700,273.575 15.397,273.253 15.075 C 272.930 14.753,272.667 14.416,272.667 14.328 C 272.667 14.239,272.563 14.167,272.436 14.167 C 272.228 14.167,271.937 13.605,271.982 13.292 C 271.992 13.223,271.911 13.185,271.802 13.208 C 271.692 13.231,271.574 13.116,271.538 12.953 C 271.458 12.583,270.778 11.833,270.523 11.833 C 270.418 11.833,270.333 11.718,270.333 11.577 C 270.333 11.289,269.698 10.323,269.371 10.115 C 269.255 10.040,269.206 9.904,269.263 9.812 C 269.320 9.720,269.216 9.605,269.032 9.557 C 268.729 9.477,268.430 8.960,268.486 8.613 C 268.498 8.537,268.442 8.516,268.362 8.566 C 268.281 8.615,268.131 8.471,268.028 8.245 C 267.925 8.018,267.764 7.833,267.670 7.833 C 267.577 7.833,267.500 7.683,267.500 7.500 C 267.500 7.315,267.389 7.167,267.250 7.167 C 267.112 7.167,267.000 7.054,267.000 6.917 C 267.000 6.779,266.921 6.667,266.823 6.667 C 266.726 6.667,266.693 6.592,266.750 6.500 C 266.807 6.408,266.736 6.333,266.593 6.333 C 266.449 6.333,266.333 6.192,266.333 6.018 C 266.333 5.844,266.221 5.659,266.083 5.606 C 265.946 5.554,265.833 5.404,265.833 5.275 C 265.833 5.145,265.683 5.000,265.500 4.952 C 265.317 4.904,265.167 4.745,265.167 4.599 C 265.167 4.172,251.863 4.198,251.361 4.625 M320.042 4.444 C 319.880 4.509,319.833 6.098,319.833 11.597 L 319.833 18.667 329.583 18.667 L 339.333 18.667 339.353 44.292 C 339.364 58.385,339.364 69.972,339.354 70.039 C 339.313 70.307,340.370 70.341,347.417 70.296 L 354.750 70.250 354.792 44.460 L 354.834 18.669 364.626 18.626 L 374.417 18.583 374.453 11.708 C 374.473 7.926,374.446 4.720,374.393 4.583 C 374.299 4.338,320.645 4.200,320.042 4.444 M385.333 4.510 C 385.333 4.607,385.247 4.633,385.141 4.567 C 385.026 4.496,384.994 4.521,385.060 4.629 C 385.122 4.729,385.096 4.857,385.003 4.915 C 384.683 5.113,384.777 70.109,385.097 70.232 C 385.242 70.288,388.654 70.333,392.680 70.333 L 400.000 70.333 400.000 37.333 L 400.000 4.333 392.667 4.333 C 387.616 4.333,385.333 4.388,385.333 4.510 M-0.000 45.429 C -0.000 66.266,0.035 69.892,0.236 70.093 C 0.628 70.485,14.140 70.429,14.440 70.034 C 14.801 69.559,14.765 21.240,14.403 21.101 C 14.258 21.046,10.958 21.000,7.070 21.000 L 0.000 21.000 -0.000 45.429 M207.583 24.833 C 207.721 24.947,207.833 25.257,207.833 25.520 C 207.833 25.836,207.919 26.000,208.083 26.000 C 208.258 26.000,208.333 26.176,208.333 26.583 C 208.333 27.378,208.337 27.388,208.689 27.634 C 208.868 27.760,209.000 28.053,209.000 28.325 C 209.000 28.591,209.109 28.840,209.250 28.894 C 209.402 28.952,209.500 29.204,209.500 29.538 C 209.500 29.906,209.610 30.155,209.833 30.295 C 210.060 30.436,210.167 30.683,210.167 31.067 C 210.167 31.415,210.263 31.668,210.417 31.727 C 210.558 31.781,210.667 32.030,210.667 32.300 C 210.667 32.563,210.723 32.834,210.792 32.903 C 210.860 32.972,210.919 33.078,210.923 33.139 C 210.926 33.200,211.017 33.409,211.125 33.603 C 211.233 33.797,211.286 33.991,211.243 34.035 C 211.200 34.078,211.315 34.249,211.499 34.416 C 211.683 34.582,211.833 34.928,211.833 35.184 C 211.833 35.440,211.938 35.710,212.066 35.783 C 212.253 35.891,212.457 36.649,212.494 37.375 C 212.497 37.444,212.612 37.500,212.750 37.500 C 212.925 37.500,213.000 37.676,213.000 38.083 C 213.000 38.491,213.075 38.667,213.250 38.667 C 213.413 38.667,213.500 38.830,213.500 39.135 C 213.500 39.393,213.650 39.765,213.833 39.962 C 214.033 40.175,214.167 40.550,214.167 40.892 C 214.167 41.247,214.262 41.501,214.417 41.560 C 214.554 41.613,214.667 41.771,214.667 41.911 C 214.667 42.137,213.791 42.167,207.167 42.167 L 199.667 42.167 199.667 41.606 C 199.667 41.297,199.817 40.854,200.000 40.621 C 200.183 40.388,200.333 40.001,200.333 39.760 C 200.333 39.520,200.446 39.280,200.583 39.227 C 200.739 39.167,200.833 38.913,200.833 38.556 C 200.833 38.239,200.903 38.023,200.988 38.076 C 201.073 38.128,201.201 38.002,201.271 37.794 C 201.444 37.289,201.455 37.233,201.479 36.750 C 201.491 36.513,201.590 36.351,201.708 36.375 C 201.830 36.399,201.938 36.208,201.969 35.917 C 201.997 35.642,202.135 35.329,202.274 35.221 C 202.414 35.114,202.570 34.701,202.622 34.305 C 202.673 33.908,202.817 33.523,202.941 33.450 C 203.065 33.377,203.167 33.104,203.167 32.843 C 203.167 32.575,203.276 32.327,203.417 32.273 C 203.563 32.217,203.667 31.967,203.667 31.672 C 203.667 31.389,203.813 31.020,204.000 30.833 C 204.183 30.650,204.333 30.283,204.333 30.018 C 204.333 29.743,204.441 29.494,204.583 29.440 C 204.737 29.381,204.833 29.128,204.833 28.781 C 204.833 28.430,204.959 28.105,205.167 27.917 C 205.351 27.750,205.500 27.403,205.500 27.141 C 205.500 26.839,205.587 26.667,205.740 26.667 C 205.897 26.667,205.998 26.451,206.032 26.042 C 206.061 25.686,206.165 25.432,206.274 25.452 C 206.382 25.473,206.515 25.149,206.582 24.702 C 206.724 23.752,207.032 23.481,207.208 24.151 C 207.276 24.412,207.445 24.718,207.583 24.833 M88.029 55.626 C 88.071 55.875,87.522 56.767,86.917 57.434 C 86.825 57.535,86.412 58.014,86.000 58.499 C 84.679 60.052,83.228 61.362,81.663 62.412 C 79.990 63.535,78.551 64.309,77.913 64.428 C 77.203 64.562,77.203 64.535,77.917 65.406 C 78.237 65.797,78.500 66.279,78.500 66.475 C 78.500 66.682,78.605 66.833,78.750 66.833 C 78.887 66.833,79.009 66.946,79.021 67.083 C 79.032 67.221,79.051 67.414,79.063 67.513 C 79.074 67.612,79.207 67.784,79.359 67.895 C 79.510 68.005,79.660 68.279,79.692 68.503 C 79.724 68.727,79.862 69.031,80.000 69.180 C 80.610 69.839,80.833 70.193,80.833 70.502 C 80.833 70.685,80.945 70.833,81.083 70.833 C 81.239 70.833,81.333 70.991,81.333 71.249 C 81.333 71.483,81.478 71.754,81.667 71.872 C 81.869 71.998,82.000 72.261,82.000 72.540 C 82.000 72.793,82.071 73.000,82.158 73.000 C 82.324 73.000,82.632 73.508,83.092 74.542 L 83.370 75.167 84.935 75.167 C 85.796 75.167,86.500 75.109,86.500 75.040 C 86.500 74.907,86.926 74.656,87.708 74.327 C 87.960 74.221,88.167 74.029,88.167 73.900 C 88.167 73.772,88.255 73.667,88.362 73.667 C 88.784 73.667,89.815 73.067,89.894 72.775 C 89.942 72.597,90.058 72.516,90.167 72.583 C 90.277 72.652,90.392 72.562,90.443 72.366 C 90.523 72.062,91.040 71.763,91.387 71.819 C 91.463 71.832,91.483 71.773,91.431 71.690 C 91.307 71.489,91.742 71.134,91.917 71.293 C 91.992 71.361,91.998 71.321,91.931 71.204 C 91.849 71.062,91.976 70.933,92.316 70.814 C 92.595 70.717,92.807 70.550,92.787 70.444 C 92.767 70.337,92.839 70.267,92.948 70.288 C 93.057 70.309,93.192 70.182,93.248 70.005 C 93.304 69.828,93.495 69.638,93.672 69.582 C 93.849 69.526,93.976 69.391,93.955 69.282 C 93.934 69.173,94.010 69.102,94.125 69.125 C 94.240 69.148,94.333 69.097,94.333 69.013 C 94.333 68.813,95.313 67.833,95.513 67.833 C 95.597 67.833,95.667 67.721,95.667 67.583 C 95.667 67.446,95.728 67.333,95.804 67.333 C 95.960 67.333,96.833 66.049,96.833 65.818 C 96.833 65.735,96.937 65.667,97.064 65.667 C 97.191 65.667,97.334 65.517,97.382 65.333 C 97.430 65.150,97.588 65.000,97.734 65.000 C 97.916 65.000,98.000 64.848,98.000 64.518 C 98.000 64.243,98.107 63.994,98.250 63.940 C 98.434 63.869,98.500 63.579,98.500 62.846 L 98.500 61.848 97.917 61.739 C 97.583 61.676,97.333 61.531,97.333 61.398 C 97.333 61.271,97.179 61.167,96.990 61.167 C 96.801 61.167,96.690 61.098,96.742 61.013 C 96.794 60.929,96.573 60.773,96.252 60.667 C 95.930 60.561,95.667 60.367,95.667 60.237 C 95.667 60.095,95.499 60.000,95.250 60.000 C 95.021 60.000,94.852 59.917,94.875 59.814 C 94.898 59.712,94.752 59.601,94.552 59.567 C 94.351 59.533,94.002 59.335,93.776 59.128 C 93.038 58.450,92.852 58.333,92.507 58.333 C 92.318 58.333,92.167 58.224,92.167 58.087 C 92.167 57.951,91.980 57.793,91.751 57.735 C 91.523 57.678,91.372 57.572,91.417 57.500 C 91.461 57.428,91.297 57.318,91.051 57.257 C 90.805 57.195,90.512 57.018,90.399 56.864 C 90.286 56.710,90.112 56.574,90.013 56.563 C 89.914 56.551,89.721 56.532,89.583 56.521 C 89.446 56.509,89.333 56.387,89.333 56.250 C 89.333 56.105,89.182 56.000,88.972 56.000 C 88.774 56.000,88.660 55.951,88.720 55.891 C 88.831 55.780,88.358 55.348,88.115 55.339 C 88.040 55.336,88.001 55.465,88.029 55.626 " stroke="none" fill="#57575a" fill-rule="evenodd"></path><path id="path2" d="M4.333 0.167 C 4.333 0.258,4.106 0.333,3.828 0.333 C 3.542 0.333,3.283 0.437,3.231 0.573 C 3.180 0.705,2.920 0.861,2.653 0.920 C 2.385 0.978,2.165 1.114,2.162 1.222 C 2.160 1.329,1.901 1.604,1.586 1.833 C 1.272 2.063,0.970 2.450,0.914 2.694 C 0.859 2.939,0.705 3.180,0.573 3.231 C 0.437 3.283,0.333 3.542,0.333 3.828 C 0.333 4.106,0.258 4.333,0.167 4.333 C 0.061 4.333,0.000 5.583,0.000 7.750 C 0.000 9.917,0.061 11.167,0.167 11.167 C 0.258 11.167,0.333 11.389,0.333 11.661 C 0.333 11.987,0.448 12.217,0.671 12.336 C 0.857 12.435,0.965 12.588,0.911 12.675 C 0.858 12.762,0.968 12.833,1.157 12.833 C 1.354 12.833,1.500 12.942,1.500 13.089 C 1.500 13.229,1.613 13.387,1.750 13.440 C 1.888 13.492,2.000 13.640,2.000 13.768 C 2.000 13.896,2.150 14.000,2.333 14.000 C 2.556 14.000,2.667 14.111,2.667 14.333 C 2.667 14.517,2.771 14.667,2.899 14.667 C 3.027 14.667,3.174 14.779,3.227 14.917 C 3.283 15.062,3.532 15.167,3.820 15.167 C 4.120 15.167,4.381 15.282,4.480 15.458 C 4.748 15.937,10.495 15.972,10.619 15.496 C 10.685 15.244,10.849 15.166,11.311 15.166 C 11.770 15.165,12.070 15.024,12.551 14.583 C 12.900 14.262,13.256 14.000,13.343 14.000 C 13.429 14.000,13.500 13.887,13.500 13.750 C 13.500 13.612,13.612 13.500,13.750 13.500 C 13.889 13.500,14.000 13.352,14.000 13.167 C 14.000 12.944,14.111 12.833,14.333 12.833 C 14.522 12.833,14.667 12.722,14.667 12.578 C 14.667 12.438,14.779 12.280,14.917 12.227 C 15.091 12.160,15.167 11.889,15.167 11.334 C 15.167 10.677,15.218 10.541,15.458 10.560 C 15.930 10.598,15.959 5.064,15.488 4.657 C 15.297 4.491,15.167 4.164,15.167 3.850 C 15.167 3.535,15.066 3.284,14.917 3.227 C 14.779 3.174,14.667 3.027,14.667 2.899 C 14.667 2.771,14.517 2.667,14.333 2.667 C 14.111 2.667,14.000 2.556,14.000 2.333 C 14.000 2.148,13.889 2.000,13.750 2.000 C 13.612 2.000,13.500 1.887,13.500 1.750 C 13.500 1.613,13.401 1.500,13.279 1.500 C 13.157 1.500,12.839 1.238,12.572 0.917 C 12.232 0.509,11.947 0.333,11.626 0.333 C 11.373 0.333,11.167 0.258,11.167 0.167 C 11.167 0.061,9.917 0.000,7.750 0.000 C 5.583 0.000,4.333 0.061,4.333 0.167 M62.162 15.170 C 62.049 15.239,61.160 15.350,60.187 15.416 C 59.213 15.481,58.117 15.633,57.750 15.752 C 57.383 15.872,56.835 16.021,56.530 16.084 C 56.226 16.147,55.776 16.303,55.530 16.431 C 55.285 16.560,54.924 16.665,54.729 16.666 C 54.534 16.666,54.281 16.779,54.167 16.917 C 54.053 17.054,53.835 17.167,53.683 17.167 C 53.532 17.167,53.231 17.290,53.015 17.442 C 52.799 17.593,52.276 17.900,51.853 18.124 C 51.430 18.349,51.023 18.638,50.950 18.766 C 50.877 18.895,50.735 19.000,50.635 19.000 C 50.130 19.000,47.032 21.863,45.794 23.474 C 45.502 23.855,45.203 24.167,45.131 24.167 C 45.059 24.167,45.000 24.274,45.000 24.405 C 45.000 24.536,44.906 24.744,44.792 24.868 C 44.375 25.317,43.877 26.099,43.751 26.503 C 43.680 26.731,43.569 26.954,43.505 27.000 C 43.307 27.142,42.500 28.963,42.495 29.281 C 42.492 29.447,42.379 29.729,42.245 29.907 C 42.110 30.085,42.000 30.387,42.000 30.579 C 42.000 30.771,41.836 31.376,41.635 31.922 C 41.089 33.409,41.090 39.852,41.637 41.500 C 41.834 42.096,41.997 42.712,41.998 42.869 C 42.000 43.146,42.195 43.654,42.855 45.102 C 43.026 45.478,43.167 45.832,43.167 45.888 C 43.167 45.944,43.552 46.648,44.023 47.453 C 46.741 52.095,51.067 55.571,56.002 57.080 C 56.780 57.318,57.754 57.617,58.167 57.745 C 61.070 58.642,67.955 57.966,70.833 56.500 C 71.490 56.166,71.831 54.833,71.260 54.833 C 71.032 54.833,70.902 54.413,70.985 53.944 C 70.999 53.867,70.857 53.765,70.671 53.716 C 70.352 53.633,70.252 53.382,70.326 52.852 C 70.347 52.706,70.263 52.658,70.096 52.722 C 69.901 52.797,69.833 52.717,69.833 52.411 C 69.833 52.157,69.738 52.000,69.583 52.000 C 69.446 52.000,69.333 51.856,69.333 51.680 C 69.333 51.184,69.154 50.833,68.899 50.833 C 68.754 50.833,68.667 50.652,68.667 50.351 C 68.667 50.076,68.559 49.828,68.417 49.773 C 68.279 49.720,68.167 49.562,68.167 49.422 C 68.167 49.217,67.937 49.167,67.000 49.167 C 66.074 49.167,65.833 49.218,65.833 49.417 C 65.833 49.606,65.630 49.667,65.000 49.667 C 64.370 49.667,64.167 49.728,64.167 49.917 C 64.167 50.109,63.945 50.169,63.208 50.177 C 61.499 50.194,60.952 50.279,60.747 50.559 C 60.438 50.982,58.404 50.953,58.292 50.525 C 58.223 50.262,58.019 50.211,56.898 50.182 C 55.957 50.157,55.548 50.079,55.451 49.907 C 55.362 49.748,55.037 49.667,54.492 49.667 C 53.869 49.667,53.667 49.605,53.667 49.417 C 53.667 49.244,53.493 49.167,53.103 49.167 C 52.679 49.167,52.517 49.084,52.452 48.833 C 52.393 48.608,52.224 48.500,51.932 48.500 C 51.695 48.500,51.500 48.423,51.500 48.328 C 51.500 48.234,51.369 48.106,51.208 48.045 C 51.048 47.984,50.771 47.798,50.594 47.633 C 50.416 47.468,50.135 47.333,49.969 47.333 C 49.803 47.333,49.667 47.221,49.667 47.083 C 49.667 46.946,49.554 46.833,49.417 46.833 C 49.279 46.833,49.167 46.721,49.167 46.583 C 49.167 46.444,49.019 46.333,48.833 46.333 C 48.608 46.333,48.500 46.222,48.500 45.990 C 48.500 45.789,48.426 45.693,48.322 45.757 C 48.224 45.817,48.103 45.710,48.053 45.517 C 47.969 45.198,47.800 45.093,47.458 45.147 C 47.390 45.158,47.333 45.017,47.333 44.833 C 47.333 44.648,47.222 44.500,47.083 44.500 C 46.946 44.500,46.833 44.387,46.833 44.250 C 46.833 44.112,46.730 44.000,46.603 44.000 C 46.393 44.000,46.103 43.436,46.150 43.120 C 46.161 43.049,46.057 42.947,45.918 42.894 C 45.780 42.841,45.667 42.691,45.667 42.560 C 45.667 42.430,45.554 42.280,45.417 42.227 C 45.279 42.174,45.167 41.988,45.167 41.814 C 45.167 41.639,45.017 41.368,44.833 41.211 C 44.650 41.054,44.500 40.760,44.500 40.558 C 44.500 40.356,44.387 40.078,44.250 39.940 C 44.108 39.798,44.000 39.391,44.000 38.996 C 44.000 38.442,43.933 38.285,43.667 38.215 C 43.367 38.137,43.333 37.988,43.333 36.731 C 43.333 35.702,43.278 35.344,43.125 35.375 C 42.786 35.443,42.739 32.526,43.077 32.396 C 43.279 32.318,43.333 32.006,43.333 30.918 C 43.333 29.679,43.367 29.530,43.667 29.452 C 43.939 29.380,44.000 29.224,44.000 28.599 C 44.000 28.030,44.064 27.833,44.250 27.833 C 44.425 27.833,44.500 27.657,44.500 27.250 C 44.500 26.863,44.578 26.667,44.732 26.667 C 44.987 26.667,45.167 26.316,45.167 25.820 C 45.167 25.644,45.279 25.500,45.417 25.500 C 45.554 25.500,45.667 25.385,45.667 25.245 C 45.667 25.104,45.775 24.948,45.906 24.898 C 46.038 24.847,46.194 24.587,46.253 24.319 C 46.312 24.052,46.466 23.833,46.597 23.833 C 46.727 23.833,46.833 23.683,46.833 23.500 C 46.833 23.315,46.944 23.167,47.083 23.167 C 47.221 23.167,47.333 23.054,47.333 22.917 C 47.333 22.779,47.418 22.667,47.523 22.667 C 47.745 22.667,48.500 21.888,48.500 21.658 C 48.500 21.571,48.654 21.500,48.843 21.500 C 49.032 21.500,49.142 21.429,49.089 21.342 C 49.035 21.255,49.143 21.102,49.329 21.002 C 49.515 20.903,49.667 20.712,49.667 20.577 C 49.667 20.418,49.838 20.333,50.158 20.333 C 50.429 20.333,50.710 20.234,50.783 20.112 C 50.857 19.991,51.048 19.843,51.208 19.784 C 51.369 19.725,51.500 19.562,51.500 19.422 C 51.500 19.249,51.663 19.167,52.005 19.167 C 52.283 19.167,52.550 19.063,52.599 18.936 C 52.647 18.810,52.974 18.660,53.325 18.604 C 53.676 18.548,54.007 18.389,54.060 18.251 C 54.128 18.073,54.402 18.000,55.000 18.000 C 55.596 18.000,55.872 17.927,55.940 17.750 C 56.021 17.538,56.602 17.500,59.750 17.500 C 62.898 17.500,63.479 17.538,63.560 17.750 C 63.628 17.925,63.901 18.000,64.475 18.000 C 65.154 18.000,65.309 18.057,65.382 18.333 C 65.453 18.606,65.609 18.667,66.234 18.667 C 66.804 18.667,67.000 18.731,67.000 18.917 C 67.000 19.056,67.148 19.167,67.333 19.167 C 67.521 19.167,67.667 19.278,67.667 19.421 C 67.667 19.571,67.876 19.717,68.181 19.778 C 68.464 19.834,68.734 19.983,68.782 20.107 C 68.830 20.231,68.936 20.333,69.018 20.333 C 69.100 20.333,69.317 20.483,69.500 20.667 C 69.683 20.850,69.983 21.000,70.167 21.000 C 70.352 21.000,70.500 21.111,70.500 21.250 C 70.500 21.387,70.604 21.500,70.731 21.500 C 70.857 21.500,71.000 21.650,71.048 21.833 C 71.096 22.017,71.255 22.167,71.401 22.167 C 71.547 22.167,71.667 22.279,71.667 22.417 C 71.667 22.554,71.779 22.667,71.917 22.667 C 72.054 22.667,72.167 22.779,72.167 22.917 C 72.167 23.054,72.279 23.167,72.417 23.167 C 72.556 23.167,72.667 23.315,72.667 23.500 C 72.667 23.683,72.817 23.983,73.000 24.167 C 73.183 24.350,73.333 24.572,73.333 24.661 C 73.333 24.749,73.483 24.902,73.667 25.000 C 73.862 25.104,74.000 25.349,74.000 25.589 C 74.000 25.843,74.095 26.000,74.250 26.000 C 74.417 26.000,74.500 26.167,74.500 26.505 C 74.500 26.801,74.604 27.050,74.750 27.106 C 74.895 27.162,75.000 27.411,75.000 27.700 C 75.000 28.058,75.094 28.222,75.333 28.285 C 75.602 28.355,75.667 28.512,75.667 29.091 C 75.667 29.507,75.772 29.915,75.917 30.060 C 76.124 30.267,76.167 30.938,76.167 33.970 C 76.167 37.071,76.128 37.646,75.917 37.727 C 75.740 37.795,75.667 38.070,75.667 38.661 C 75.667 39.267,75.602 39.500,75.434 39.500 C 75.156 39.500,75.000 39.858,75.000 40.496 C 75.000 40.759,74.890 41.006,74.750 41.060 C 74.610 41.114,74.500 41.362,74.500 41.621 C 74.500 41.906,74.371 42.167,74.167 42.295 C 73.978 42.412,73.833 42.683,73.833 42.918 C 73.833 43.182,73.739 43.333,73.575 43.333 C 73.032 43.333,73.326 45.193,73.917 45.494 C 74.192 45.635,74.477 45.844,74.550 45.958 C 74.623 46.073,74.905 46.167,75.175 46.167 C 75.514 46.167,75.667 46.249,75.667 46.432 C 75.667 46.578,75.817 46.737,76.000 46.785 C 76.183 46.833,76.333 46.976,76.333 47.103 C 76.333 47.248,76.519 47.333,76.833 47.333 C 77.167 47.333,77.333 47.417,77.333 47.583 C 77.333 47.738,77.490 47.833,77.745 47.833 C 78.042 47.833,78.130 47.903,78.060 48.084 C 77.991 48.263,78.109 48.363,78.471 48.436 C 78.750 48.492,79.019 48.641,79.067 48.769 C 79.233 49.200,80.319 49.060,80.500 48.583 C 80.587 48.354,80.719 48.167,80.793 48.167 C 80.867 48.167,81.015 47.960,81.124 47.708 C 81.232 47.456,81.529 46.871,81.785 46.408 C 82.469 45.169,83.088 43.571,83.334 42.417 C 83.412 42.050,83.548 41.559,83.637 41.326 C 84.150 39.982,84.264 34.889,83.825 32.917 C 83.184 30.038,83.028 29.573,81.981 27.417 C 80.203 23.755,78.078 21.277,74.710 18.939 C 74.230 18.606,73.767 18.333,73.682 18.333 C 73.597 18.333,73.503 18.274,73.472 18.201 C 73.398 18.022,70.702 16.713,70.123 16.574 C 69.870 16.513,69.625 16.401,69.578 16.324 C 69.531 16.248,69.139 16.133,68.707 16.068 C 68.275 16.003,67.696 15.858,67.419 15.745 C 67.143 15.633,66.160 15.489,65.235 15.425 C 64.311 15.362,63.287 15.250,62.961 15.177 C 62.634 15.103,62.275 15.100,62.162 15.170 M80.077 50.343 C 80.022 50.432,79.896 50.455,79.796 50.394 C 79.685 50.325,79.663 50.360,79.741 50.485 C 79.821 50.615,79.740 50.722,79.517 50.781 C 79.324 50.831,79.167 50.946,79.167 51.036 C 79.167 51.126,78.792 51.567,78.333 52.016 C 77.875 52.464,77.500 52.907,77.500 52.999 C 77.500 53.091,77.385 53.167,77.245 53.167 C 77.104 53.167,76.949 53.272,76.900 53.400 C 76.851 53.529,76.665 53.672,76.488 53.718 C 76.311 53.764,76.167 53.922,76.167 54.068 C 76.167 54.214,76.054 54.333,75.917 54.333 C 75.779 54.333,75.667 54.446,75.667 54.583 C 75.667 54.738,75.510 54.833,75.258 54.833 C 75.034 54.833,74.790 54.932,74.717 55.052 C 74.643 55.173,74.321 55.344,74.000 55.433 C 73.338 55.616,72.948 57.667,73.575 57.667 C 73.796 57.667,73.924 58.060,73.856 58.532 C 73.847 58.595,73.989 58.693,74.170 58.751 C 74.376 58.816,74.500 59.004,74.500 59.249 C 74.500 59.466,74.600 59.743,74.722 59.865 C 74.844 59.987,74.995 60.292,75.058 60.543 C 75.121 60.794,75.284 61.000,75.420 61.000 C 75.556 61.000,75.667 61.150,75.667 61.333 C 75.667 61.519,75.778 61.667,75.917 61.667 C 76.091 61.667,76.167 61.843,76.167 62.250 C 76.167 62.722,76.230 62.833,76.500 62.833 C 76.770 62.833,76.833 62.944,76.833 63.417 C 76.833 63.824,76.909 64.000,77.083 64.000 C 77.221 64.000,77.333 64.121,77.333 64.269 C 77.333 64.887,79.114 64.123,81.663 62.412 C 83.228 61.362,84.679 60.052,86.000 58.499 C 86.412 58.014,86.825 57.535,86.917 57.434 C 87.471 56.823,88.074 55.885,88.031 55.699 C 87.955 55.366,87.452 54.833,87.213 54.833 C 87.096 54.833,87.000 54.721,87.000 54.583 C 87.000 54.418,86.835 54.333,86.511 54.333 C 86.169 54.333,85.991 54.234,85.917 54.000 C 85.858 53.817,85.711 53.667,85.590 53.667 C 85.468 53.667,85.326 53.554,85.273 53.417 C 85.217 53.271,84.967 53.167,84.672 53.167 C 84.273 53.167,84.167 53.094,84.167 52.823 C 84.167 52.635,84.094 52.525,84.006 52.580 C 83.918 52.634,83.693 52.526,83.506 52.339 C 83.319 52.153,83.025 52.000,82.853 52.000 C 82.673 52.000,82.499 51.849,82.446 51.645 C 82.384 51.408,82.267 51.323,82.093 51.390 C 81.936 51.450,81.833 51.400,81.833 51.263 C 81.833 51.012,81.480 50.833,80.986 50.833 C 80.811 50.833,80.667 50.729,80.667 50.601 C 80.667 50.317,80.216 50.119,80.077 50.343 " stroke="none" fill="#f79522" fill-rule="evenodd"></path></g></svg>